<svg fill="none" xmlns="http://www.w3.org/2000/svg" viewBox="0 0 278 267">
  <path d="M101.902 42.754a21.18 21.18 0 0 1-20.929-18.039A21.189 21.189 0 0 1 95.68 1.322l.203-.061a21.17 21.17 0 0 1 25.903 14.13 21.182 21.182 0 0 1-13.37 26.308l-.272.088c-2.02.633-4.124.96-6.241.967Z" fill="#29C2AB"/>
  <path d="M175.058 42.446a21.185 21.185 0 0 1-6.575-1.055l-.193-.061a21.176 21.176 0 0 1-14.581-18.473 21.178 21.178 0 0 1 4.998-15.421 21.184 21.184 0 0 1 14.437-7.37c2.773-.22 5.561.109 8.207.966l.264.088a21.183 21.183 0 0 1 14.32 23.452 21.185 21.185 0 0 1-20.877 17.865v.009Z" fill="#FFDE00"/>
  <path d="M234.045 85.328a21.155 21.155 0 0 1-17.052-8.589l-.255-.334a21.196 21.196 0 0 1 4.68-29.603 21.188 21.188 0 0 1 29.599 4.681v.07a21.18 21.18 0 0 1-5.903 30.621 21.176 21.176 0 0 1-11.096 3.154h.027Z" fill="#F99"/>
  <path d="M256.536 154.925a21.18 21.18 0 0 1-21.182-21.186v-.51a21.168 21.168 0 0 1 6.048-15.259 21.183 21.183 0 0 1 36.308 15.259v.528a21.176 21.176 0 0 1-21.174 21.168Z" fill="#FFDE00"/>
  <path d="M233.886 224.215a21.315 21.315 0 0 1-20.75-16.252 21.323 21.323 0 0 1 10.904-23.997 21.311 21.311 0 0 1 25.887 4.946 21.315 21.315 0 0 1 1.292 26.327l-.255.343a21.139 21.139 0 0 1-17.078 8.633Z" fill="#29C2AB"/>
  <path d="M174.829 267a21.184 21.184 0 0 1-18.003-32.331 21.182 21.182 0 0 1 11.578-9.039h.132a21.177 21.177 0 0 1 25.393 29.777 21.174 21.174 0 0 1-12.332 10.52l-.334.106c-2.082.654-4.252.98-6.434.967Z" fill="#FFDE00"/>
  <path d="M102.174 266.674a21.335 21.335 0 0 1-6.232-.94l-.175-.053a21.187 21.187 0 0 1-3.59-38.71 21.18 21.18 0 0 1 15.895-1.825l.299.097a21.188 21.188 0 0 1 7.586 36.294 21.177 21.177 0 0 1-13.809 5.137h.026Z" fill="#F99"/>
  <path d="M42.924 224.478a21.133 21.133 0 0 1-17.219-8.791l-.14-.193a21.182 21.182 0 0 1 20.628-33.257 21.177 21.177 0 0 1 13.773 8.546l.141.202a21.19 21.19 0 0 1-6.175 30.372 21.18 21.18 0 0 1-11.008 3.121Z" fill="#FFDE00"/>
  <path d="M21.178 154.802A21.175 21.175 0 0 1 .004 133.625v-.247a21.188 21.188 0 0 1 21.179-21.617 21.177 21.177 0 0 1 19.692 13.378 21.188 21.188 0 0 1 1.486 8.239v.247a21.183 21.183 0 0 1-6.205 14.977 21.17 21.17 0 0 1-14.978 6.2Z" fill="#00C8E6"/>
  <path d="M42.74 85.09a21.173 21.173 0 0 1-21.09-22.645 21.178 21.178 0 0 1 3.836-10.76l.105-.14a21.176 21.176 0 0 1 22.153-9.04 21.173 21.173 0 0 1 16.437 17.39 21.178 21.178 0 0 1-3.977 16.018l-.175.246a21.158 21.158 0 0 1-17.29 8.931Z" fill="#FFDE00"/>
  <path d="M161.699 108c-4.057.004-7.947 1.686-10.816 4.676-2.869 2.989-4.484 7.043-4.489 11.272v6.239h-21.348a4.945 4.945 0 0 0-3.568 1.54 5.375 5.375 0 0 0-1.478 3.719v18.295c0 1.394.532 2.732 1.478 3.719a4.945 4.945 0 0 0 3.568 1.54h28.898a4.945 4.945 0 0 0 3.568-1.54 5.379 5.379 0 0 0 1.478-3.719v-18.307a5.375 5.375 0 0 0-1.478-3.719 4.946 4.946 0 0 0-3.568-1.541h-2.116v-6.226c.052-2.693 1.114-5.257 2.959-7.142 1.845-1.886 4.326-2.942 6.91-2.942 2.584 0 5.065 1.056 6.91 2.942 1.845 1.885 2.908 4.449 2.959 7.142v8.367c0 .751.286 1.471.796 2.002.509.531 1.2.83 1.921.83.721 0 1.412-.299 1.921-.83a2.89 2.89 0 0 0 .796-2.002v-8.367c-.005-4.228-1.619-8.281-4.487-11.271-2.869-2.99-6.757-4.672-10.814-4.677Z" fill="#4A4552"/>
</svg>