<svg fill="none" xmlns="http://www.w3.org/2000/svg" viewBox="0 0 318 307">
  <g opacity=".8" filter="url(#a)">
    <path d="M121.569 62.311c-5.107-.004-10.044-1.766-13.913-4.965-3.869-3.199-6.414-7.623-7.173-12.469-.759-4.846.319-9.792 3.038-13.94 2.718-4.15 6.898-7.225 11.779-8.669l.203-.06c5.347-1.427 11.064-.8 15.937 1.75 4.872 2.55 8.517 6.822 10.161 11.908a19.718 19.718 0 0 1-1.359 15.335c-2.515 4.747-6.859 8.367-12.111 10.09l-.274.086a22.078 22.078 0 0 1-6.288.934Z" fill="#29C2AB"/>
    <path d="M194.49 62.312a21.017 21.017 0 0 1-6.537-1.052l-.192-.061a21.036 21.036 0 0 1-7.171-4.02 21.104 21.104 0 0 1-5.091-6.467 21.163 21.163 0 0 1 2.734-23.3 21.074 21.074 0 0 1 6.449-5.104 21.012 21.012 0 0 1 16.066-1.279l.262.088a21.071 21.071 0 0 1 11.412 9.06 21.166 21.166 0 0 1 2.826 14.318 21.13 21.13 0 0 1-7.109 12.736 21.029 21.029 0 0 1-13.649 5.072v.009Z" fill="#FFDE00"/>
    <path d="M254.287 106.082a20.536 20.536 0 0 1-9.511-2.325 21.246 21.246 0 0 1-7.472-6.505l-.254-.343c-3.291-4.674-4.649-10.506-3.775-16.213.874-5.708 3.909-10.823 8.436-14.22 4.528-3.398 10.177-4.8 15.705-3.897 5.529.902 10.484 4.035 13.775 8.709v.072a22.206 22.206 0 0 1 4.06 11.095 22.374 22.374 0 0 1-2.175 11.645c-1.755 3.599-4.443 6.625-7.765 8.74a20.597 20.597 0 0 1-11.051 3.242h.027Z" fill="#F99"/>
    <path d="M276.062 174.656c-5.611 0-10.992-2.181-14.959-6.062-3.968-3.881-6.197-9.145-6.197-14.634v-.498a20.31 20.31 0 0 1 1.485-8.049 20.647 20.647 0 0 1 4.556-6.857 21.172 21.172 0 0 1 6.915-4.596 21.576 21.576 0 0 1 16.391 0 21.186 21.186 0 0 1 6.916 4.596 20.66 20.66 0 0 1 4.555 6.857 20.293 20.293 0 0 1 1.485 8.049v.515c-.002 5.485-2.231 10.745-6.197 14.623-3.966 3.877-9.343 6.056-14.95 6.056Z" fill="#FFDE00"/>
    <path d="M253.49 244.688c-4.908.011-9.677-1.574-13.541-4.499-3.864-2.925-6.599-7.02-7.765-11.629a20.511 20.511 0 0 1 1.334-13.78c2.031-4.319 5.504-7.853 9.862-10.034a22.55 22.55 0 0 1 14.169-1.993c4.82.89 9.191 3.32 12.411 6.901 3.22 3.581 5.101 8.103 5.341 12.842.241 4.738-1.173 9.417-4.015 13.285l-.261.34a21.535 21.535 0 0 1-7.708 6.312 22.317 22.317 0 0 1-9.827 2.255Z" fill="#29C2AB"/>
    <path d="M194.231 287a20.992 20.992 0 0 1-13.684-5.09 21.162 21.162 0 0 1-7.1-12.806 21.214 21.214 0 0 1 2.898-14.366 21.056 21.056 0 0 1 11.502-9.019h.131a20.951 20.951 0 0 1 16.054 1.28 21.108 21.108 0 0 1 10.451 12.307 21.22 21.22 0 0 1-1.274 16.126 21.066 21.066 0 0 1-12.253 10.497l-.332.106a20.846 20.846 0 0 1-6.393.965Z" fill="#FFDE00"/>
    <path d="M122.062 287a20.145 20.145 0 0 1-6.043-.941l-.17-.052c-5.103-1.725-9.348-5.442-11.826-10.355a21.79 21.79 0 0 1-1.432-15.933c1.56-5.3 5.07-9.758 9.778-12.421a19.982 19.982 0 0 1 15.411-1.825l.29.096c4.697 1.494 8.719 4.676 11.336 8.969 2.616 4.292 3.653 9.41 2.923 14.424-.73 5.014-3.179 9.591-6.903 12.901-3.724 3.31-8.474 5.132-13.39 5.137h.026Z" fill="#F99"/>
    <path d="M63.146 244.688a21.077 21.077 0 0 1-17.158-8.747l-.14-.193a21.063 21.063 0 0 1-3.684-15.706 21.094 21.094 0 0 1 16.011-17.109 21.117 21.117 0 0 1 21.955 8.226l.14.201a21.063 21.063 0 0 1-6.153 30.222 21.12 21.12 0 0 1-10.97 3.106Z" fill="#FFDE00"/>
    <path d="M41.151 174.656c-5.608 0-10.987-2.194-14.953-6.098-3.966-3.904-6.194-9.199-6.194-14.721v-.242a20.54 20.54 0 0 1 1.485-8.099 20.797 20.797 0 0 1 4.556-6.901 21.187 21.187 0 0 1 6.915-4.625 21.452 21.452 0 0 1 16.391 0 21.186 21.186 0 0 1 6.916 4.625 20.794 20.794 0 0 1 4.555 6.901 20.54 20.54 0 0 1 1.485 8.099v.242a20.54 20.54 0 0 1-1.61 7.969 20.79 20.79 0 0 1-4.587 6.755 21.148 21.148 0 0 1-6.863 4.512 21.435 21.435 0 0 1-8.096 1.583Z" fill="#00C8E6"/>
    <path d="M62.764 104.623a20.984 20.984 0 0 1-10.858-3.045 20.845 20.845 0 0 1-7.688-8.213 20.719 20.719 0 0 1 1.506-21.564l.104-.138a20.858 20.858 0 0 1 5.866-5.863 20.97 20.97 0 0 1 7.699-3.125 21.016 21.016 0 0 1 8.314.107 20.967 20.967 0 0 1 7.615 3.322 20.85 20.85 0 0 1 5.712 6.012 20.705 20.705 0 0 1 2.547 16.017 20.762 20.762 0 0 1-3.568 7.472l-.174.242a20.864 20.864 0 0 1-7.463 6.457 20.989 20.989 0 0 1-9.612 2.319Z" fill="#FFDE00"/>
  </g>
  <path d="M173.288 150.157v-6.374c-.062-4.206-1.661-8.218-4.453-11.168-2.791-2.951-6.551-4.605-10.467-4.605-3.917 0-7.676 1.654-10.468 4.605-2.791 2.95-4.39 6.962-4.453 11.168v6.329c-1.165.184-2.231.811-3.002 1.768a5.51 5.51 0 0 0-1.202 3.444v18.382c0 1.401.518 2.745 1.441 3.737.922.991 2.174 1.547 3.479 1.547h28.179c1.305 0 2.556-.556 3.479-1.547.923-.992 1.441-2.336 1.441-3.737v-18.382a5.525 5.525 0 0 0-1.127-3.347c-.724-.942-1.73-1.585-2.847-1.82Zm-14.918-16.703c2.55.003 4.995 1.093 6.799 3.03 1.803 1.937 2.818 4.563 2.821 7.303v6.268h-19.244v-6.272c.003-2.74 1.018-5.367 2.822-7.305 1.804-1.937 4.25-3.026 6.802-3.028v.004Z" fill="#4A4552"/>
  <defs>
    <filter id="a" x="0" y="0" width="317.213" height="307" filterUnits="userSpaceOnUse" color-interpolation-filters="sRGB">
      <feFlood flood-opacity="0" result="BackgroundImageFix"/>
      <feBlend in="SourceGraphic" in2="BackgroundImageFix" result="shape"/>
      <feGaussianBlur stdDeviation="10" result="effect1_foregroundBlur_1537_10561"/>
    </filter>
  </defs>
</svg>