<svg fill="none" xmlns="http://www.w3.org/2000/svg" viewBox="0 0 261 260">
  <path opacity=".3" d="M221 214.864a124.565 124.565 0 0 1-51.303 33.477 123.822 123.822 0 0 1-60.94 4.885 124.212 124.212 0 0 1-55.918-24.881 125.384 125.384 0 0 1-37.44-48.661 126.277 126.277 0 0 1-9.958-60.735 126.072 126.072 0 0 1 19.923-58.197 124.966 124.966 0 0 1 45.008-41.657A123.96 123.96 0 0 1 129.64 4v121.826L221 214.864Z" fill="#00C8E6"/>
  <path d="M220.747 215.238a124.622 124.622 0 0 1-51.322 33.421 124.102 124.102 0 0 1-60.961 4.875 124.38 124.38 0 0 1-55.936-24.842 125.222 125.222 0 0 1-37.453-48.584 125.855 125.855 0 0 1-9.96-60.637 125.71 125.71 0 0 1 19.928-58.104 124.918 124.918 0 0 1 45.024-41.59 124.195 124.195 0 0 1 59.286-15.073" stroke="#6B6B6B" stroke-width="3" stroke-miterlimit="10" stroke-linecap="round"/>
  <path d="m248.162 179.752-12.024-4.99c.156-.378.312-.756.459-1.135l12.079 4.862c-.174.424-.339.848-.514 1.263Zm5.617-16.797-12.592-3.274.302-1.19 12.593 3.154c-.101.434-.22.923-.303 1.31Zm3.24-17.396-12.923-1.522.138-1.218 12.932 1.374c-.073.462-.119.914-.174 1.366h.027Zm-12.152-17.434v-1.218l12.997-.387v1.365l-12.997.24Zm-1.377-15.847-.192-1.208 12.85-2.159.22 1.347-12.878 2.02Zm-3.506-15.506-.358-1.171 12.409-3.902c.138.433.276.867.404 1.3l-12.455 3.773Zm-5.599-14.86a38.797 38.797 0 0 0-.514-1.116l11.767-5.534c.193.406.386.811.569 1.226l-11.822 5.424Zm-7.563-13.956c-.22-.35-.44-.692-.67-1.033l10.895-7.149c.248.379.496.757.734 1.135l-10.959 7.047Zm-9.408-12.812-.789-.922 9.821-8.57c.293.341.596.683.918 1.033l-9.95 8.459ZM206.4 43.743l-.918-.812 8.582-9.823 1.019.922-8.683 9.713Zm-12.556-9.796-1.001-.674 7.169-10.912 1.138.766-7.306 10.82Zm-13.686-7.988-1.092-.535 5.617-11.789 1.23.6-5.755 11.724Zm-14.685-6.024-1.166-.378 3.956-12.461 1.303.424-4.093 12.415Zm-16.189-4.065 1.218.133 1.483-12.988-1.363-.15-1.338 13.005Zm81.118 170.828-.358 13.034 11.409-6.199-11.051-6.835Z" fill="#6B6B6B"/>
  <path fill-rule="evenodd" clip-rule="evenodd" d="M144.035 120.781v-7.955c0-3.623-1.416-7.097-3.936-9.658-2.52-2.562-5.939-4-9.503-4a13.33 13.33 0 0 0-9.503 4 13.772 13.772 0 0 0-3.936 9.658v7.955h26.878Zm-32.946 0v-7.955c0-5.258 2.056-10.301 5.714-14.02 3.658-3.717 8.62-5.806 13.793-5.806 5.174 0 10.135 2.089 13.793 5.807 3.659 3.718 5.714 8.761 5.714 14.019v7.955h3.137c.738 0 1.446.298 1.967.829.522.53.815 1.249.815 1.999v31.107c0 .75-.293 1.47-.815 2a2.758 2.758 0 0 1-1.967.828h-45.458a2.76 2.76 0 0 1-1.967-.828 2.851 2.851 0 0 1-.815-2v-31.107c0-.75.293-1.469.815-1.999a2.757 2.757 0 0 1 1.967-.829h3.307Zm21.838 29.613-.643-8.73a6.02 6.02 0 0 0 3.315-2.587 6.195 6.195 0 0 0 .852-4.158 6.135 6.135 0 0 0-2.023-3.717 5.952 5.952 0 0 0-3.918-1.478 5.952 5.952 0 0 0-3.918 1.478 6.13 6.13 0 0 0-2.022 3.717 6.183 6.183 0 0 0 .852 4.158 6.014 6.014 0 0 0 3.314 2.587l-.642 8.73c0 .153.059.3.166.408a.56.56 0 0 0 .401.168h3.698a.56.56 0 0 0 .401-.168.58.58 0 0 0 .167-.408Z" fill="#4A4552"/>
</svg>