<svg width="125" height="55" fill="none" xmlns="http://www.w3.org/2000/svg">
  <g clip-path="url(#a)">
    <path fill="#F6F8FB" d="M0 0h125v55H0z"/>
    <path d="M20.814 38.48c0-.109.038-.295-.183-.295-.111 0-.184.075-.257.186l-5.269 8.008c-1.177 1.77-1.883 2.471-3.205 2.471-1.177 0-1.843-.706-2.433-2.47l-2.643-8.12a.325.325 0 0 0-.294-.221c-.221 0-.259.294-.259.294L3.918 53.342c-.22 1.401-1.104 1.648-2.172 1.648-.848 0-1.732-.294-1.732-1.326a6.9 6.9 0 0 1 .148-1.107l3.351-21.019c.252-1.686 1.054-2.497 2.605-2.497 1.068 0 1.953.333 2.542 2.25l3.647 11.873c.038.111.073.295.221.295.149 0 .221-.184.294-.295l7.849-11.873c1.362-2.066 2.026-2.25 3.205-2.25 1.252 0 1.988.627 1.988 1.885-.01.21-.034.42-.073.626l-3.466 21.79c-.219 1.401-1.104 1.648-2.172 1.648-.847 0-1.732-.294-1.732-1.326a6.89 6.89 0 0 1 .148-1.107l2.245-14.078Zm8.211 16.374c-.957 0-1.51-.407-1.51-1.29 0-.186.012-.37.035-.554l3.513-22.127c.184-1.142.848-1.695 2.027-1.695h12.587c1.177 0 1.584.774 1.584 1.622 0 1.108-.706 2.066-2.248 2.066H34.956c-.257 0-.367.073-.405.332l-.958 6.195c-.038.257 0 .332.259.332h8.658c1.176 0 1.583.775 1.583 1.623 0 1.104-.706 2.063-2.247 2.063h-8.585c-.259 0-.332.075-.37.332l-1.103 7.08c-.038.26 0 .333.257.333h10.5c1.176 0 1.584.774 1.584 1.622 0 1.107-.706 2.066-2.245 2.066H29.025Zm36.812-2.398C65.543 54.227 64.733 55 63.333 55c-1.473 0-1.915-.589-3.021-3.208l-6.119-14.676c-.073-.184-.148-.332-.294-.332-.221 0-.221.259-.259.407l-2.589 16.15c-.22 1.402-1.103 1.65-2.172 1.65-.847 0-1.731-.295-1.731-1.327a7.14 7.14 0 0 1 .145-1.107l3.354-20.943c.296-1.885 1.106-2.591 2.506-2.591 1.363 0 1.953.626 3.022 3.243l6.118 14.676c.075.186.148.332.294.332.224 0 .224-.256.259-.405l2.589-16.188c.22-1.413 1.106-1.649 2.174-1.649.847 0 1.732.295 1.732 1.326-.02.373-.07.743-.148 1.107l-3.356 20.991Zm7.723-19.58c-1.176 0-1.583-.775-1.583-1.623 0-1.107.706-2.065 2.247-2.065h14.663c1.177 0 1.584.774 1.584 1.622 0 1.108-.706 2.066-2.248 2.066h-5.01c-.37 0-.331.184-.37.332L79.64 53.342c-.221 1.401-1.106 1.649-2.175 1.649-.81 0-1.73-.295-1.73-1.327 0-.22.111-.774.147-1.107l3.094-19.346c.038-.26-.035-.333-.294-.333l-5.12-.002ZM18.287 12.719c0 .148.075.221.235.37 1.144.996 2.022 2.355 2.022 4.315 0 4.534-3.319 8.406-9.27 8.406H1.647c-1.066 0-1.753-.516-1.563-1.649l3.68-22.317C3.945.707 4.707.148 5.853.148h8.81c4.001 0 7.06 1.953 7.06 6.011 0 2.433-.955 4.645-3.09 6.195-.192.146-.345.221-.345.365ZM6.003 14.747c-.266 0-.344.075-.419.332l-1.068 6.713c-.038.256 0 .332.268.332H12c2.747 0 4.427-1.809 4.427-4.39 0-1.621-1.109-2.987-3.511-2.987H6.003Zm7.248-3.677c2.75 0 4.349-1.813 4.349-4.36 0-1.952-1.412-2.875-3.203-2.875h-6.59c-.265 0-.38.075-.418.332l-1.08 6.564c-.038.257.045.34.306.34h6.636ZM28.05 24.3c-.235 1.413-1.143 1.649-2.249 1.649-.878 0-1.793-.297-1.793-1.329.026-.372.077-.741.153-1.107L27.782 1.66C28.018.294 28.928.012 30.035.012c.837 0 1.793.294 1.793 1.363-.03.36-.081.717-.153 1.07L28.05 24.3ZM38.358 3.835c-1.222 0-1.648-.775-1.648-1.623 0-1.105.725-2.064 2.328-2.064H52.73c1.031 0 1.565.552 1.565 1.414a2.703 2.703 0 0 1-.687 1.648l-14.84 18.325a1.808 1.808 0 0 0-.265.37c0 .113.037.235.235.235h10.947c1.221 0 1.647.773 1.647 1.62 0 1.108-.724 2.066-2.327 2.066H33.85c-1.372 0-1.678-.664-1.678-1.328 0-.773.496-1.437 1.221-2.322L47.886 4.29c.115-.11.153-.183.153-.256 0-.186-.19-.186-.236-.186l-9.445-.014ZM76.14 9.44c0-.11.038-.294-.19-.294a.33.33 0 0 0-.267.184l-5.455 8.008c-1.22 1.771-1.946 2.47-3.32 2.47-1.219 0-1.906-.706-2.518-2.47l-2.734-8.12a.336.336 0 0 0-.304-.22c-.235 0-.268.294-.268.294L58.644 24.3c-.236 1.413-1.144 1.649-2.25 1.649-.878 0-1.793-.297-1.793-1.328.02-.373.07-.743.153-1.107l3.47-21.017C58.48.813 59.32 0 60.92 0c1.106 0 2.024.332 2.633 2.25l3.777 11.882c.038.11.076.295.236.295.16 0 .235-.184.306-.295L75.987 2.25C77.399.184 78.086 0 79.305 0c1.297 0 2.06.627 2.06 1.884a4.946 4.946 0 0 1-.076.63L77.705 24.3c-.236 1.413-1.146 1.649-2.252 1.649-.878 0-1.793-.297-1.793-1.328.02-.373.072-.743.153-1.107L76.14 9.44ZM113.026 55c-5.412 0-7.845-2.69-7.845-7.596.04-1.804.212-3.603.515-5.382 1.141-7.412 2.836-12.98 11.42-12.98 5.413 0 7.884 2.765 7.884 7.706a35.573 35.573 0 0 1-.471 5.274C123.378 49.397 121.832 55 113.026 55Zm-3.868-7.596c0 2.803 1.254 3.947 4.459 3.947 5.231 0 6.041-3.982 6.926-9.33a28.35 28.35 0 0 0 .47-5.273c0-2.47-1.214-4.056-4.457-4.056-5.452 0-6.151 4.794-6.888 9.33a31.547 31.547 0 0 0-.51 5.382ZM91.883 25.96c-5.608 0-8.126-2.691-8.126-7.595.042-1.806.22-3.606.534-5.385C85.472 5.568 87.228 0 96.116 0c5.608 0 8.164 2.765 8.164 7.707a34.162 34.162 0 0 1-.502 5.273c-1.176 7.375-2.779 12.98-11.895 12.98Zm-4.006-7.588c0 2.8 1.297 3.945 4.615 3.945 5.413 0 6.255-3.983 7.17-9.33a27.2 27.2 0 0 0 .497-5.273c0-2.471-1.259-4.056-4.615-4.056-5.647 0-6.37 4.793-7.132 9.33a30.635 30.635 0 0 0-.535 5.384Z" fill="#1A1C39"/>
    <path d="M118.235 1.213h5.045a.682.682 0 0 1 .577 1.048L90.996 54.534a.686.686 0 0 1-.579.32h-5.045a.681.681 0 0 1-.577-1.048l32.868-52.273a.683.683 0 0 1 .572-.32Z" fill="url(#b)"/>
  </g>
  <defs>
    <linearGradient id="b" x1="84.689" y1="28.034" x2="123.963" y2="28.034" gradientUnits="userSpaceOnUse">
      <stop stop-color="#365AD4"/>
      <stop offset="1" stop-color="#4F78D6"/>
    </linearGradient>
    <clipPath id="a">
      <path fill="#fff" d="M0 0h125v55H0z"/>
    </clipPath>
  </defs>
</svg>