<svg xmlns="http://www.w3.org/2000/svg" viewBox="0 0 16 16">
  <defs>
    <clipPath id="a">
      <path d="M0 0h16v16H0z"/>
    </clipPath>
  </defs>
  <g data-name="Custom Size – 1" clip-path="url(#a)">
    <g data-name="Group 1">
      <path data-name="Union 1" d="M5.078 16a2.006 2.006 0 0 1-1.348-.522 2.028 2.028 0 0 1-.654-1.292L1.975 3.608H.433a.433.433 0 1 1 0-.866h4.275v-.088A2.663 2.663 0 0 1 5.479.779 2.629 2.629 0 0 1 7.345 0h.625a2.629 2.629 0 0 1 1.866.779 2.662 2.662 0 0 1 .771 1.875v.089h4.276a.433.433 0 0 1 0 .866H13.34l-1.1 10.577a2.027 2.027 0 0 1-.655 1.294 2.006 2.006 0 0 1-1.346.52Zm-1.142-1.9a1.163 1.163 0 0 0 .375.741 1.141 1.141 0 0 0 .767.3h5.16a1.141 1.141 0 0 0 .767-.3 1.163 1.163 0 0 0 .376-.742L12.47 3.608H2.846ZM9.742 2.743v-.089a1.8 1.8 0 0 0-.52-1.265A1.764 1.764 0 0 0 7.97.866h-.625a1.764 1.764 0 0 0-1.252.523 1.8 1.8 0 0 0-.52 1.266v.089Z"/>
    </g>
  </g>
</svg>