<svg xmlns="http://www.w3.org/2000/svg" xmlns:xlink="http://www.w3.org/1999/xlink" width="16" height="16" viewBox="0 0 16 16">
  <defs>
    <clipPath id="clip-facebook">
      <rect width="16" height="16"/>
    </clipPath>
  </defs>
  <g id="facebook" clip-path="url(#clip-facebook)">
    <path id="Subtraction_1" data-name="Subtraction 1" d="M86-341a8.009,8.009,0,0,1-8-8,8.009,8.009,0,0,1,8-8,8.009,8.009,0,0,1,8,8A8.009,8.009,0,0,1,86-341Zm-.969-7.981v4.38h1.825v-4.38H88.17l.146-1.46h-1.46v-.62c0-.315.062-.474.4-.474h1.058v-1.825H86.929c-1.277,0-1.9.549-1.9,1.679v1.241h-1.1v1.46Z" transform="translate(-78 357)"/>
  </g>
</svg>
