<svg xmlns="http://www.w3.org/2000/svg" viewBox="0 0 16 16">
  <defs>
    <clipPath id="a">
      <path d="M0 0h16v16H0z"/>
    </clipPath>
  </defs>
  <g data-name="Custom Size – 1" clip-path="url(#a)">
    <path data-name="Path 1" d="M1.234 2h.7v.348h-.7Zm1.392 0h.7v.348h-.7Zm1.391 0h.7v.348h-.7Zm1.391 0h.123a1.465 1.465 0 0 1 .629.143l-.15.314a1.115 1.115 0 0 0-.479-.109h-.123ZM1 2.022l.065.342a.888.888 0 0 0-.459.241l-.039.041-.258-.233.053-.056A1.234 1.234 0 0 1 1 2.022Zm5.746.637.01.015.361.576-.295.185-.369-.587ZM0 3.149l.347.021v.685H0v-.706Zm7.478.425h.7v.348h-.7Zm1.391 0h.7v.348h-.7Zm1.391 0h.7v.348h-.7Zm1.391 0h.7v.348h-.7Zm1.391 0h.7v.348h-.7Zm1.391 0h.177a1.39 1.39 0 0 1 .575.123l-.143.317a1.044 1.044 0 0 0-.432-.093h-.177Zm1.347.635a1.358 1.358 0 0 1 .216.732v.021h-.348v-.02a1.01 1.01 0 0 0-.161-.545ZM0 4.551h.348v.7H0Zm15.652 1.108H16v.7h-.348ZM0 5.942h.348v.7H0ZM15.652 7.05H16v.7h-.348ZM0 7.333h.348v.7H0Zm15.652 1.108H16v.7h-.348ZM0 8.725h.348v.7H0Zm15.652 1.107H16v.7h-.348ZM0 10.116h.348v.7H0Zm15.652 1.108H16v.7h-.348ZM0 11.507h.348v.7H0Zm15.652 1.108H16v.334a1.356 1.356 0 0 1-.064.409l-.331-.105a1.008 1.008 0 0 0 .047-.3ZM0 12.9h.348v.051a1.012 1.012 0 0 0 .152.521l-.3.181a1.36 1.36 0 0 1-.2-.7Zm15.274.838.219.27a1.391 1.391 0 0 1-.724.3l-.039-.346a1.044 1.044 0 0 0 .544-.226Zm-14.343.13a1.057 1.057 0 0 0 .453.1h.149v.348h-.15a1.407 1.407 0 0 1-.6-.138Zm1.3.1h.7v.348h-.7Zm1.391 0h.7v.348h-.7Zm1.391 0h.7v.348h-.7Zm1.391 0h.7v.348H6.4Zm1.391 0h.7v.348h-.7Zm1.391 0h.7v.348h-.7Zm1.391 0h.7v.348h-.7Zm1.391 0h.7v.348h-.7Zm1.391 0h.7v.348h-.7Z"/>
  </g>
</svg>