<svg xmlns="http://www.w3.org/2000/svg" xmlns:xlink="http://www.w3.org/1999/xlink" width="16" height="16" viewBox="0 0 16 16">
  <defs>
    <clipPath id="clip-linkedin">
      <rect width="16" height="16"/>
    </clipPath>
  </defs>
  <g id="linkedin" clip-path="url(#clip-linkedin)">
    <path id="Subtraction_3" data-name="Subtraction 3" d="M62-341a8.009,8.009,0,0,1-8-8,8.009,8.009,0,0,1,8-8,8.009,8.009,0,0,1,8,8A8.009,8.009,0,0,1,62-341Zm1.472-8.849c.432,0,.868.339.868,1.1v2.507h1.491v-3.013a1.722,1.722,0,0,0-1.739-1.9,1.754,1.754,0,0,0-1.543.8v-.656H61.058v4.774h1.491v-2.507A.983.983,0,0,1,63.472-349.849Zm-4.8-1.17v4.774h1.492v-4.774Zm.746-2.089a.738.738,0,0,0-.746.746.738.738,0,0,0,.746.745.738.738,0,0,0,.746-.745A.738.738,0,0,0,59.416-353.108Z" transform="translate(-54 357)"/>
  </g>
</svg>
