<svg xmlns="http://www.w3.org/2000/svg" xmlns:xlink="http://www.w3.org/1999/xlink" width="16" height="16" viewBox="0 0 16 16">
  <defs>
    <clipPath id="clip-preview">
      <rect width="16" height="16"/>
    </clipPath>
  </defs>
  <g id="preview" clip-path="url(#clip-preview)">
    <g id="Group_3" data-name="Group 3" transform="translate(0 0.731)">
      <path id="Path_5" data-name="Path 5" d="M8.269,3.178a7.039,7.039,0,0,1,3.428.915,10.16,10.16,0,0,1,2.477,1.97,13.337,13.337,0,0,1,2.042,2.844.511.511,0,0,1,0,.457,13.337,13.337,0,0,1-2.042,2.844,10.16,10.16,0,0,1-2.477,1.97,7.039,7.039,0,0,1-3.428.915,7.039,7.039,0,0,1-3.428-.915,10.16,10.16,0,0,1-2.477-1.97A13.337,13.337,0,0,1,.323,9.364a.511.511,0,0,1,0-.457A13.337,13.337,0,0,1,2.365,6.063a10.16,10.16,0,0,1,2.477-1.97A7.039,7.039,0,0,1,8.269,3.178Zm6.908,5.957A12.912,12.912,0,0,0,13.41,6.742,9.115,9.115,0,0,0,11.19,4.98,6.026,6.026,0,0,0,8.269,4.2a6.026,6.026,0,0,0-2.921.78,9.115,9.115,0,0,0-2.22,1.762A12.912,12.912,0,0,0,1.361,9.136a12.912,12.912,0,0,0,1.767,2.394,9.115,9.115,0,0,0,2.22,1.762,6.026,6.026,0,0,0,2.921.78,6.026,6.026,0,0,0,2.921-.78,9.115,9.115,0,0,0,2.22-1.762A12.912,12.912,0,0,0,15.178,9.136Z" transform="translate(-0.269 -1.909)"/>
      <path id="Path_6" data-name="Path 6" d="M10.617,13.157A2.553,2.553,0,1,1,13.17,10.6,2.556,2.556,0,0,1,10.617,13.157Zm0-4.085A1.532,1.532,0,1,0,12.149,10.6,1.534,1.534,0,0,0,10.617,9.072Z" transform="translate(-2.618 -3.377)"/>
    </g>
  </g>
</svg>
