<svg xmlns="http://www.w3.org/2000/svg" xmlns:xlink="http://www.w3.org/1999/xlink" width="16" height="16" viewBox="0 0 16 16">
  <defs>
    <clipPath id="clip-Artboard_1">
      <rect width="16" height="16"/>
    </clipPath>
  </defs>
  <g id="Artboard_1" data-name="Artboard – 1" clip-path="url(#clip-Artboard_1)">
    <path id="Path_1" data-name="Path 1" d="M4.443,1.777a.889.889,0,1,0,.889.889A.889.889,0,0,0,4.443,1.777Zm-2.515,0a2.667,2.667,0,0,1,5.03,0H13.33a.889.889,0,1,1,0,1.777H6.958a2.667,2.667,0,0,1-5.03,0H.889a.889.889,0,1,1,0-1.777ZM9.775,7.109A.889.889,0,1,0,10.664,8,.889.889,0,0,0,9.775,7.109Zm-2.515,0a2.667,2.667,0,0,1,5.03,0h1.04a.889.889,0,1,1,0,1.777H12.29a2.667,2.667,0,0,1-5.03,0H.889a.889.889,0,1,1,0-1.777ZM4.443,12.441a.889.889,0,1,0,.889.889A.889.889,0,0,0,4.443,12.441Zm-2.515,0a2.667,2.667,0,0,1,5.03,0H13.33a.889.889,0,1,1,0,1.777H6.958a2.667,2.667,0,0,1-5.03,0H.889a.889.889,0,0,1,0-1.777Z" transform="translate(1 0.002)"/>
  </g>
</svg>
