<svg width="182" height="73" viewBox="0 0 182 73" fill="none" xmlns="http://www.w3.org/2000/svg">
<g clip-path="url(#clip0_696:4397)">
<path d="M51.4137 54.2805C57.935 47.7499 62.059 39.2048 63.1159 30.0329C64.1728 20.861 62.1006 11.6008 57.2358 3.7561L54.6837 6.72343C39.0535 24.9254 22.0705 41.9186 3.88001 57.5577L0.938477 60.0978C8.7751 64.9652 18.0254 67.0392 27.188 65.9832C36.3507 64.9272 44.8878 60.8032 51.4137 54.2805Z" fill="#92E1D2"/>
<path d="M57.9952 2.98143C57.8944 2.8825 57.7588 2.82709 57.6176 2.82709C57.4764 2.82709 57.3408 2.8825 57.2399 2.98143C57.1443 3.0875 57.091 3.22504 57.0901 3.36789C57.0893 3.51073 57.1409 3.64891 57.2352 3.75613C62.0769 11.6004 64.1308 20.8508 63.0642 30.0089C61.9976 39.1671 57.873 47.6968 51.3585 54.2164C44.844 60.7361 36.321 64.8639 27.17 65.9313C18.0191 66.9987 8.776 64.9432 0.937868 60.0978C0.832562 60.0078 0.698653 59.9584 0.560206 59.9584C0.421759 59.9584 0.287851 60.0078 0.182545 60.0978C0.083691 60.1987 0.0283203 60.3344 0.0283203 60.4757C0.0283203 60.6171 0.083691 60.7528 0.182545 60.8537L0.313905 60.9946C8.04823 68.3473 18.3467 72.3852 29.0134 72.2475C39.68 72.1097 49.8709 67.8072 57.4131 60.2572C64.9553 52.7073 69.252 42.5073 69.3871 31.8322C69.5221 21.1571 65.4848 10.8515 58.136 3.1129L57.9952 2.98143Z" fill="#084130"/>
<path d="M45.6195 48.482C45.3201 48.7825 44.9644 49.021 44.5727 49.1837C44.181 49.3463 43.7612 49.4301 43.3371 49.4301C42.913 49.4301 42.4932 49.3463 42.1015 49.1837C41.7098 49.021 41.3541 48.7825 41.0547 48.482C39.7927 47.2237 38.4697 41.3172 38.4697 41.3172C38.4697 41.3172 44.3763 42.6553 45.6336 43.9183C45.9322 44.2188 46.1688 44.5752 46.3298 44.9673C46.4907 45.3593 46.5729 45.7792 46.5716 46.2031C46.5703 46.6269 46.4855 47.0463 46.3221 47.4373C46.1588 47.8284 45.92 48.1833 45.6195 48.482Z" fill="#084130"/>
<path d="M29.4859 53.6701C29.2049 53.8051 28.8998 53.8826 28.5884 53.8981C28.2771 53.9137 27.9658 53.867 27.6727 53.7608C27.3796 53.6545 27.1107 53.4909 26.8815 53.2795C26.6523 53.068 26.4675 52.813 26.338 52.5292C25.7797 51.3461 26.338 46.9373 26.338 46.9373C26.338 46.9373 30.0911 49.3365 30.6306 50.5197C30.7653 50.8013 30.8425 51.1069 30.8577 51.4187C30.8729 51.7304 30.8259 52.0421 30.7193 52.3355C30.6127 52.6288 30.4487 52.898 30.2369 53.1271C30.0252 53.3563 29.7698 53.5409 29.4859 53.6701Z" fill="#084130"/>
<path d="M55.6638 27.321C55.4879 27.8775 55.0989 28.3417 54.5819 28.6118C54.0649 28.882 53.462 28.9361 52.9052 28.7624C51.7464 28.4009 49.0723 25.2552 49.0723 25.2552C49.0723 25.2552 53.06 24.1941 54.2329 24.5603C54.7872 24.7382 55.2488 25.1283 55.5169 25.6455C55.7849 26.1627 55.8377 26.765 55.6638 27.321Z" fill="#084130"/>
<path d="M74.0498 10.8599C74.0498 3.55422 77.9859 0 84.4179 0H87.2985C94.0213 0 97.5821 3.55422 97.5821 10.8599V44.078C97.5821 49.9375 99.6933 52.7264 104.014 52.7264C108.335 52.7264 110.249 50.13 110.249 44.078V10.8599C110.249 3.55422 114.18 0 120.617 0H123.498C130.216 0 133.767 3.55422 133.767 10.8599V43.8855C133.767 63.292 123.815 72.9953 103.911 72.9953C84.0066 72.9953 74.0529 63.292 74.0498 43.8855V10.8599Z" fill="#084130"/>
<path d="M140.813 51.177C144.172 54.1396 150.126 56.8816 156.173 56.8816C158.768 56.8816 160.109 56.3323 160.109 55.1256C160.109 53.7171 157.628 52.825 154.268 51.947C148.7 50.5384 137.163 46.1297 137.163 34.6125C137.163 23.0954 145.036 15.8555 159.34 15.8555C173.841 15.8555 180.752 20.2454 180.752 29.1286C180.752 34.7252 175.76 39.1105 175.375 38.7818C171.622 35.0539 165.777 32.0913 161.263 32.0913C158.96 32.0913 157.51 32.7486 157.51 34.0632C157.51 35.5985 160.729 36.331 164.472 37.3216C170.135 38.7302 181.99 42.9558 181.99 54.3556C181.99 66.3141 174.015 73.0047 158.181 73.0047C142.53 73.0047 136 69.0561 136 60.0602C136.009 54.9002 140.429 50.7309 140.813 51.177Z" fill="#084130"/>
</g>
<defs>
<clipPath id="clip0_696:4397">
<rect width="182" height="73" fill="white"/>
</clipPath>
</defs>
</svg>
