<svg xmlns="http://www.w3.org/2000/svg" viewBox="0 0 16 16">
  <defs>
    <clipPath id="a">
      <path d="M0 0h16v16H0z"/>
    </clipPath>
  </defs>
  <g data-name="Custom Size – 1" clip-path="url(#a)">
    <path data-name="Union 1" d="M3.127 16a2.122 2.122 0 0 1-1.5-.629A2.155 2.155 0 0 1 1 13.856V4.988a2.155 2.155 0 0 1 .623-1.516 2.121 2.121 0 0 1 1.5-.628h6.468a2.12 2.12 0 0 1 1.5.628 2.155 2.155 0 0 1 .623 1.515v8.868a2.154 2.154 0 0 1-.622 1.514A2.122 2.122 0 0 1 9.6 16ZM2.545 4.4a.833.833 0 0 0-.241.587v8.868a.834.834 0 0 0 .242.586.82.82 0 0 0 .582.243h6.463a.819.819 0 0 0 .581-.243.837.837 0 0 0 .241-.586V4.988a.837.837 0 0 0-.24-.588.822.822 0 0 0-.581-.244H3.127a.823.823 0 0 0-.582.244Zm9.868 7.447a.824.824 0 0 0 .581-.244.837.837 0 0 0 .241-.586V2.149a.835.835 0 0 0-.241-.586.822.822 0 0 0-.581-.244H5.948a.82.82 0 0 0-.582.243.832.832 0 0 0-.241.586h-1.3A2.154 2.154 0 0 1 4.443.631 2.122 2.122 0 0 1 5.948 0h6.464a2.119 2.119 0 0 1 1.5.629 2.154 2.154 0 0 1 .623 1.515v8.869a2.155 2.155 0 0 1-.621 1.518 2.124 2.124 0 0 1-1.5.631Z"/>
  </g>
</svg>