<svg xmlns="http://www.w3.org/2000/svg" viewBox="0 0 16 16">
  <defs>
    <clipPath id="a">
      <path d="M0 0h16v16H0z"/>
    </clipPath>
  </defs>
  <g data-name="Custom Size – 1" clip-path="url(#a)">
    <g data-name="Group 1">
      <path data-name="Exclusion 1" d="M14.761 14.236H1.236a1.239 1.239 0 0 1-.874-.358A1.208 1.208 0 0 1 0 13.015V3.07a1.071 1.071 0 0 1 .317-.756A1.085 1.085 0 0 1 1.084 2h4.392a1.311 1.311 0 0 1 .631.162 1.29 1.29 0 0 1 .472.444l.465.74a.435.435 0 0 0 .162.191.442.442 0 0 0 .242.072h7.314a1.239 1.239 0 0 1 .875.357A1.208 1.208 0 0 1 16 4.83v8.185a1.224 1.224 0 0 1-.364.863 1.239 1.239 0 0 1-.875.358ZM7.856 5.911a1.614 1.614 0 0 0-1.186.529 1.915 1.915 0 0 0-.5 1.284v.728a.547.547 0 0 0-.34.2.639.639 0 0 0-.136.4v2.112a.631.631 0 0 0 .163.429.532.532 0 0 0 .394.178h3.188a.538.538 0 0 0 .394-.178.631.631 0 0 0 .167-.429V9.051a.641.641 0 0 0-.128-.385.55.55 0 0 0-.323-.209v-.733a1.915 1.915 0 0 0-.5-1.284 1.613 1.613 0 0 0-1.193-.529Zm1.09 2.534h-2.18v-.721a1.252 1.252 0 0 1 .32-.839 1.026 1.026 0 0 1 1.541 0 1.238 1.238 0 0 1 .319.84v.72Z"/>
    </g>
  </g>
</svg>