<svg xmlns="http://www.w3.org/2000/svg" viewBox="0 0 16 16">
  <defs>
    <clipPath id="a">
      <path d="M0 0h16v16H0z"/>
    </clipPath>
  </defs>
  <g data-name="Custom Size – 1" clip-path="url(#a)">
    <g data-name="Group 1">
      <path data-name="Exclusion 1" d="M14.761 14.235H1.236a1.238 1.238 0 0 1-.873-.358A1.208 1.208 0 0 1 0 13.015V3.07a1.071 1.071 0 0 1 .317-.756A1.083 1.083 0 0 1 1.084 2h4.392a1.315 1.315 0 0 1 .631.162 1.3 1.3 0 0 1 .472.444l.465.74a.432.432 0 0 0 .162.191.443.443 0 0 0 .242.072h7.314a1.239 1.239 0 0 1 .875.357A1.207 1.207 0 0 1 16 4.83v8.185a1.207 1.207 0 0 1-.364.863 1.238 1.238 0 0 1-.875.357ZM6.255 8.46a.553.553 0 0 0-.4.177.629.629 0 0 0-.166.427v2.1a.621.621 0 0 0 .166.427.553.553 0 0 0 .4.177H9.5a.553.553 0 0 0 .4-.177.621.621 0 0 0 .166-.427v-2.1a.621.621 0 0 0-.166-.428.553.553 0 0 0-.4-.177h-.238v-.716a1.213 1.213 0 0 1 .332-.82 1.06 1.06 0 0 1 1.552 0 1.214 1.214 0 0 1 .332.82V8.7a.335.335 0 0 0 .089.23.292.292 0 0 0 .431 0 .335.335 0 0 0 .09-.23v-.957a1.887 1.887 0 0 0-.5-1.3 1.641 1.641 0 0 0-2.428 0 1.885 1.885 0 0 0-.5 1.3v.717Z"/>
    </g>
  </g>
</svg>