<svg xmlns="http://www.w3.org/2000/svg" viewBox="0 0 16 16">
  <defs>
    <clipPath id="a">
      <path d="M0 0h16v16H0z"/>
    </clipPath>
  </defs>
  <g data-name="Custom Size – 1" clip-path="url(#a)">
    <g data-name="Group 1">
      <path data-name="Union 1" d="M1.831 11.505a4.106 4.106 0 1 1 5.712-5.684A4.085 4.085 0 0 1 8.2 7.572h7.267a.527.527 0 1 1 0 1.053h-.8v2.256a.524.524 0 0 1-.155.372.531.531 0 0 1-.748 0 .524.524 0 0 1-.155-.372V8.624h-1.26v2.257a.53.53 0 0 1-1.059 0V8.624H8.2a4.125 4.125 0 0 1-6.369 2.881Zm.588-5.939a3.053 3.053 0 1 0 3.863.38 3.05 3.05 0 0 0-3.863-.38Z"/>
    </g>
  </g>
</svg>