<svg xmlns="http://www.w3.org/2000/svg" xmlns:xlink="http://www.w3.org/1999/xlink" width="16" height="16" viewBox="0 0 16 16">
  <defs>
    <clipPath id="clip-star">
      <rect width="16" height="16"/>
    </clipPath>
  </defs>
  <g id="star" clip-path="url(#clip-star)">
    <path id="Path_4" data-name="Path 4" d="M7.852,1.031a.572.572,0,0,1,1.075,0l1.79,4.507a.585.585,0,0,0,.491.374l4.645.39a.616.616,0,0,1,.332,1.071l-3.539,3.176a.627.627,0,0,0-.188.6L13.54,15.9a.589.589,0,0,1-.87.662L8.693,14.019a.56.56,0,0,0-.607,0L4.109,16.564a.589.589,0,0,1-.87-.662L4.32,11.153a.627.627,0,0,0-.188-.6L.594,7.373A.616.616,0,0,1,.926,6.3l4.645-.39a.585.585,0,0,0,.491-.374Z" transform="translate(-0.389 -0.655)"/>
  </g>
</svg>
