<svg width="30" height="29" viewBox="0 0 30 29" fill="none" xmlns="http://www.w3.org/2000/svg">
<path d="M13.8722 1.15837C14.2407 0.272238 15.496 0.272238 15.8646 1.15837L19.1815 9.13307C19.3368 9.50664 19.6882 9.76189 20.0915 9.79422L28.7008 10.4844C29.6575 10.5611 30.0454 11.755 29.3165 12.3793L22.7571 17.9982C22.4498 18.2614 22.3156 18.6744 22.4095 19.0679L24.4135 27.4692C24.6362 28.4028 23.6206 29.1406 22.8016 28.6403L15.4308 24.1383C15.0855 23.9274 14.6513 23.9274 14.306 24.1383L6.93516 28.6403C6.11613 29.1406 5.10057 28.4028 5.32325 27.4692L7.32727 19.0679C7.42114 18.6744 7.28695 18.2614 6.97968 17.9982L0.420254 12.3793C-0.308615 11.755 0.0792954 10.5611 1.03595 10.4844L9.64531 9.79422C10.0486 9.76189 10.3999 9.50664 10.5553 9.13307L13.8722 1.15837Z" fill="#FFDE00"/>
</svg>
