<svg width="1423" height="656" viewBox="0 0 1423 656" fill="none" xmlns="http://www.w3.org/2000/svg">
<g clip-path="url(#clip0_667:8079)">
<path d="M283.854 384.288C286.508 384.288 288.679 382.117 288.679 379.464C288.679 376.81 286.508 374.639 283.854 374.639C281.2 374.639 279.029 376.81 279.029 379.464C279.029 382.117 281.2 384.288 283.854 384.288Z" fill="#00C7E5"/>
<path d="M382.761 142.812C387.103 142.812 390.561 139.354 390.561 135.012C390.561 130.669 387.103 127.212 382.761 127.212C378.419 127.212 374.961 130.669 374.961 135.012C374.961 139.273 378.419 142.812 382.761 142.812Z" fill="#00C7E5"/>
<path d="M495.337 29.672C495.82 29.672 496.141 29.3503 496.141 28.8678C496.141 28.3854 495.82 28.0637 495.337 28.0637C494.855 28.0637 494.533 28.3854 494.533 28.8678C494.533 29.2699 494.855 29.672 495.337 29.672Z" fill="#00C7E5"/>
<path d="M424.976 177.63C425.861 177.63 426.585 176.906 426.585 176.022C426.585 175.137 425.861 174.413 424.976 174.413C424.092 174.413 423.368 175.137 423.368 176.022C423.368 176.906 424.092 177.63 424.976 177.63Z" fill="#00C7E5"/>
<path d="M764.717 114.909C765.601 114.909 766.325 114.185 766.325 113.3C766.325 112.416 765.601 111.692 764.717 111.692C763.832 111.692 763.108 112.416 763.108 113.3C763.108 114.185 763.832 114.909 764.717 114.909Z" fill="#00C7E5"/>
<path d="M780.799 86.684C782.569 86.684 784.016 85.2366 784.016 83.4676C784.016 81.6985 782.569 80.2511 780.799 80.2511C779.03 80.2511 777.583 81.6985 777.583 83.4676C777.583 85.2366 779.03 86.684 780.799 86.684Z" fill="#00C7E5"/>
<path d="M868.448 27.2595C871.101 27.2595 873.272 25.0884 873.272 22.4348C873.272 19.7812 871.101 17.6101 868.448 17.6101C865.794 17.6101 863.623 19.7812 863.623 22.4348C863.623 25.0884 865.794 27.2595 868.448 27.2595Z" fill="#00C7E5"/>
<path d="M955.293 207.704C959.475 207.704 962.852 204.327 962.852 200.145C962.852 195.964 959.475 192.586 955.293 192.586C951.112 192.586 947.734 195.964 947.734 200.145C947.734 204.327 951.112 207.704 955.293 207.704Z" fill="#00C7E5"/>
<path d="M1053.4 342.474C1056.05 342.474 1058.22 340.303 1058.22 337.649C1058.22 334.996 1056.05 332.825 1053.4 332.825C1050.74 332.825 1048.57 334.996 1048.57 337.649C1048.57 340.303 1050.74 342.474 1053.4 342.474Z" fill="#00C7E5"/>
<path d="M1264.88 295.031C1265.36 295.031 1265.68 294.709 1265.68 294.227C1265.68 293.744 1265.36 293.423 1264.88 293.423C1264.4 293.423 1264.07 293.744 1264.07 294.227C1264.07 294.629 1264.4 295.031 1264.88 295.031Z" fill="#00C7E5"/>
<path d="M972.984 480.622C974.753 480.622 976.201 479.174 976.201 477.405C976.201 475.636 974.753 474.189 972.984 474.189C971.215 474.189 969.768 475.636 969.768 477.405C969.768 479.174 971.215 480.622 972.984 480.622Z" fill="#00C7E5"/>
<g opacity="0.5">
<g opacity="0.5">
<path opacity="0.5" d="M329.688 309.505C331.457 309.505 332.905 308.058 332.905 306.289C332.905 304.52 331.457 303.072 329.688 303.072C327.919 303.072 326.472 304.52 326.472 306.289C326.472 308.058 327.919 309.505 329.688 309.505Z" fill="#00C7E5"/>
<path opacity="0.5" d="M185.751 544.79C189.933 544.79 193.31 541.413 193.31 537.232C193.31 533.05 189.933 529.673 185.751 529.673C181.57 529.673 178.192 533.05 178.192 537.232C178.192 541.413 181.57 544.79 185.751 544.79Z" fill="#00C7E5"/>
<path opacity="0.5" d="M467.997 149.888C469.766 149.888 471.213 148.44 471.213 146.671C471.213 144.902 469.766 143.455 467.997 143.455C466.228 143.455 464.78 144.902 464.78 146.671C464.78 148.44 466.228 149.888 467.997 149.888Z" fill="#00C7E5"/>
<path opacity="0.5" d="M283.853 83.4675C285.622 83.4675 287.07 82.0201 287.07 80.251C287.07 78.482 285.622 77.0345 283.853 77.0345C282.084 77.0345 280.637 78.482 280.637 80.251C280.637 82.0201 282.084 83.4675 283.853 83.4675Z" fill="#00C7E5"/>
<path opacity="0.5" d="M883.726 111.692C885.495 111.692 886.943 110.245 886.943 108.476C886.943 106.707 885.495 105.259 883.726 105.259C881.957 105.259 880.51 106.707 880.51 108.476C880.51 110.245 881.957 111.692 883.726 111.692Z" fill="#00C7E5"/>
<path opacity="0.5" d="M923.128 230.702C924.897 230.702 926.344 229.254 926.344 227.485C926.344 225.716 924.897 224.269 923.128 224.269C921.359 224.269 919.911 225.716 919.911 227.485C919.911 229.254 921.359 230.702 923.128 230.702Z" fill="#00C7E5"/>
<path opacity="0.5" d="M1124.96 173.529C1126.73 173.529 1128.18 172.081 1128.18 170.312C1128.18 168.543 1126.73 167.096 1124.96 167.096C1123.19 167.096 1121.75 168.543 1121.75 170.312C1121.75 172.162 1123.19 173.529 1124.96 173.529Z" fill="#00C7E5"/>
<path opacity="0.5" d="M1241.88 432.777C1245.18 432.777 1247.83 430.123 1247.83 426.826C1247.83 423.529 1245.18 420.876 1241.88 420.876C1238.58 420.876 1235.93 423.529 1235.93 426.826C1235.93 430.123 1238.58 432.777 1241.88 432.777Z" fill="#00C7E5"/>
<path opacity="0.5" d="M952.237 563.446C955.695 563.446 958.59 560.632 958.59 557.094C958.59 553.636 955.775 550.741 952.237 550.741C948.78 550.741 945.885 553.555 945.885 557.094C945.965 560.632 948.78 563.446 952.237 563.446Z" fill="#00C7E5"/>
</g>
</g>
<path d="M1133 571.648C1133.89 571.648 1134.61 570.924 1134.61 570.04C1134.61 569.155 1133.89 568.431 1133 568.431C1132.12 568.431 1131.39 569.155 1131.39 570.04C1131.39 570.924 1132.12 571.648 1133 571.648Z" fill="#00C7E5"/>
<path d="M1305.08 576.473C1305.97 576.473 1306.69 575.749 1306.69 574.864C1306.69 573.98 1305.97 573.256 1305.08 573.256C1304.2 573.256 1303.48 573.98 1303.48 574.864C1303.48 575.749 1304.2 576.473 1305.08 576.473Z" fill="#00C7E5"/>
<path d="M1317.95 524.848C1319.72 524.848 1321.17 523.401 1321.17 521.632C1321.17 519.863 1319.72 518.415 1317.95 518.415C1316.18 518.415 1314.73 519.863 1314.73 521.632C1314.73 523.401 1316.18 524.848 1317.95 524.848Z" fill="#00C7E5"/>
<path d="M1321.17 112.496C1325.19 112.496 1328.4 109.28 1328.4 105.259C1328.4 101.239 1325.19 98.0222 1321.17 98.0222C1317.15 98.0222 1313.93 101.239 1313.93 105.259C1313.93 109.199 1317.15 112.496 1321.17 112.496Z" fill="#00C7E5"/>
<path d="M693.231 639.918C695.884 639.918 697.975 637.827 697.975 635.173C697.975 632.52 695.884 630.429 693.231 630.429C690.577 630.429 688.486 632.52 688.486 635.173C688.486 637.827 690.577 639.918 693.231 639.918Z" fill="#00C7E5"/>
<path d="M361.21 622.227C363.864 622.227 365.954 620.136 365.954 617.483C365.954 614.829 363.864 612.738 361.21 612.738C358.557 612.738 356.466 614.829 356.466 617.483C356.466 620.136 358.637 622.227 361.21 622.227Z" fill="#00C7E5"/>
<path d="M356.465 524.848C358.235 524.848 359.682 523.401 359.682 521.632C359.682 519.863 358.235 518.415 356.465 518.415C354.696 518.415 353.249 519.863 353.249 521.632C353.249 523.401 354.696 524.848 356.465 524.848Z" fill="#00C7E5"/>
<path d="M1174.5 384.288C1171.84 384.288 1169.67 382.117 1169.67 379.464C1169.67 376.81 1171.84 374.639 1174.5 374.639C1177.15 374.639 1179.32 376.81 1179.32 379.464C1179.32 382.117 1177.15 384.288 1174.5 384.288Z" fill="#FFDE00"/>
<path d="M1209.8 230.621C1208.03 230.621 1206.58 229.174 1206.58 227.405C1206.58 225.636 1208.03 224.188 1209.8 224.188C1211.57 224.188 1213.01 225.636 1213.01 227.405C1212.93 229.174 1211.57 230.621 1209.8 230.621Z" fill="#FFDE00"/>
<path d="M1415.01 301.223C1410.66 301.223 1407.21 297.765 1407.21 293.423C1407.21 289.081 1410.66 285.623 1415.01 285.623C1419.35 285.623 1422.81 289.081 1422.81 293.423C1422.81 297.685 1419.35 301.223 1415.01 301.223Z" fill="#FFDE00"/>
<path d="M963.012 29.672C962.53 29.672 962.208 29.3503 962.208 28.8678C962.208 28.3854 962.53 28.0637 963.012 28.0637C963.495 28.0637 963.816 28.3854 963.816 28.8678C963.816 29.2699 963.414 29.672 963.012 29.672Z" fill="#FFDE00"/>
<path d="M777.261 22.4349C776.376 22.4349 775.652 21.7112 775.652 20.8266C775.652 19.9421 776.376 19.2184 777.261 19.2184C778.145 19.2184 778.869 19.9421 778.869 20.8266C778.869 21.7112 778.145 22.4349 777.261 22.4349Z" fill="#FFDE00"/>
<path d="M1017.29 185.671C1016.41 185.671 1015.68 184.947 1015.68 184.063C1015.68 183.178 1016.41 182.455 1017.29 182.455C1018.18 182.455 1018.9 183.178 1018.9 184.063C1018.9 184.947 1018.18 185.671 1017.29 185.671Z" fill="#FFDE00"/>
<path d="M677.551 171.197C676.666 171.197 675.942 170.473 675.942 169.589C675.942 168.704 676.666 167.98 677.551 167.98C678.435 167.98 679.159 168.704 679.159 169.589C679.159 170.473 678.435 171.197 677.551 171.197Z" fill="#FFDE00"/>
<path d="M615.553 67.5459C612.9 67.5459 610.729 65.3748 610.729 62.7212C610.729 60.0676 612.9 57.8965 615.553 57.8965C618.207 57.8965 620.378 60.0676 620.378 62.7212C620.378 65.3748 618.207 67.5459 615.553 67.5459Z" fill="#FFDE00"/>
<path d="M7.55871 289C3.3773 289 0 285.623 0 281.442C0 277.26 3.3773 273.883 7.55871 273.883C11.7401 273.883 15.1174 277.26 15.1174 281.442C15.1978 285.623 11.7401 289 7.55871 289Z" fill="#FFDE00"/>
<path d="M404.955 342.474C402.301 342.474 400.13 340.303 400.13 337.649C400.13 334.996 402.301 332.825 404.955 332.825C407.608 332.825 409.779 334.996 409.779 337.649C409.779 340.303 407.608 342.474 404.955 342.474Z" fill="#FFDE00"/>
<path d="M193.471 295.031C192.989 295.031 192.667 294.709 192.667 294.227C192.667 293.744 192.989 293.423 193.471 293.423C193.954 293.423 194.275 293.744 194.275 294.227C194.275 294.629 193.873 295.031 193.471 295.031Z" fill="#FFDE00"/>
<path d="M497.75 512.224C495.981 512.224 494.533 510.776 494.533 509.007C494.533 507.238 495.981 505.791 497.75 505.791C499.519 505.791 500.966 507.238 500.966 509.007C500.966 510.776 499.519 512.224 497.75 512.224Z" fill="#FFDE00"/>
<g opacity="0.5">
<g opacity="0.5">
<path opacity="0.5" d="M1128.66 309.505C1126.89 309.505 1125.44 308.058 1125.44 306.289C1125.44 304.52 1126.89 303.072 1128.66 303.072C1130.43 303.072 1131.88 304.52 1131.88 306.289C1131.88 308.058 1130.43 309.505 1128.66 309.505Z" fill="#FFDE00"/>
</g>
</g>
<g opacity="0.5">
<g opacity="0.5">
<path opacity="0.5" d="M1082.1 445.08C1076.47 445.08 1071.81 440.496 1071.81 434.787C1071.81 429.078 1076.39 424.494 1082.1 424.494C1087.73 424.494 1092.39 429.078 1092.39 434.787C1092.39 440.496 1087.73 445.08 1082.1 445.08Z" fill="#FFDE00"/>
</g>
</g>
<g opacity="0.5">
<g opacity="0.5">
<path opacity="0.5" d="M1272.6 544.79C1268.42 544.79 1265.04 541.413 1265.04 537.232C1265.04 533.05 1268.42 529.673 1272.6 529.673C1276.78 529.673 1280.16 533.05 1280.16 537.232C1280.16 541.413 1276.78 544.79 1272.6 544.79Z" fill="#FFDE00"/>
</g>
</g>
<g opacity="0.5">
<g opacity="0.5">
<path opacity="0.5" d="M990.352 149.888C988.583 149.888 987.136 148.44 987.136 146.671C987.136 144.902 988.583 143.455 990.352 143.455C992.121 143.455 993.569 144.902 993.569 146.671C993.488 148.44 992.121 149.888 990.352 149.888Z" fill="#FFDE00"/>
</g>
</g>
<g opacity="0.5">
<g opacity="0.5">
<path opacity="0.5" d="M1174.5 83.4675C1172.73 83.4675 1171.28 82.0201 1171.28 80.251C1171.28 78.482 1172.73 77.0345 1174.5 77.0345C1176.26 77.0345 1177.71 78.482 1177.71 80.251C1177.63 82.0201 1176.26 83.4675 1174.5 83.4675Z" fill="#FFDE00"/>
</g>
</g>
<g opacity="0.5">
<g opacity="0.5">
<path opacity="0.5" d="M564.09 130.991C562.32 130.991 560.873 129.544 560.873 127.774C560.873 126.005 562.32 124.558 564.09 124.558C565.859 124.558 567.306 126.005 567.306 127.774C567.306 129.544 565.859 130.991 564.09 130.991Z" fill="#FFDE00"/>
</g>
</g>
<g opacity="0.5">
<g opacity="0.5">
<path opacity="0.5" d="M442.668 214.619C440.899 214.619 439.451 213.172 439.451 211.403C439.451 209.634 440.899 208.186 442.668 208.186C444.437 208.186 445.884 209.634 445.884 211.403C445.884 213.172 444.437 214.619 442.668 214.619Z" fill="#FFDE00"/>
</g>
</g>
<g opacity="0.5">
<g opacity="0.5">
<path opacity="0.5" d="M333.387 173.529C331.618 173.529 330.171 172.081 330.171 170.312C330.171 168.543 331.618 167.096 333.387 167.096C335.156 167.096 336.604 168.543 336.604 170.312C336.604 172.162 335.156 173.529 333.387 173.529Z" fill="#FFDE00"/>
</g>
</g>
<g opacity="0.5">
<g opacity="0.5">
<path opacity="0.5" d="M216.469 432.777C213.172 432.777 210.519 430.123 210.519 426.826C210.519 423.529 213.172 420.876 216.469 420.876C219.766 420.876 222.42 423.529 222.42 426.826C222.42 430.123 219.766 432.777 216.469 432.777Z" fill="#FFDE00"/>
</g>
</g>
<g opacity="0.5">
<g opacity="0.5">
<path opacity="0.5" d="M478.531 486.814C475.074 486.814 472.179 483.999 472.179 480.461C472.179 477.003 474.993 474.108 478.531 474.108C481.989 474.108 484.884 476.923 484.884 480.461C484.884 483.999 482.069 486.814 478.531 486.814Z" fill="#FFDE00"/>
</g>
</g>
<path d="M325.347 571.648C324.462 571.648 323.738 570.924 323.738 570.04C323.738 569.155 324.462 568.431 325.347 568.431C326.231 568.431 326.955 569.155 326.955 570.04C326.955 570.924 326.231 571.648 325.347 571.648Z" fill="#FFDE00"/>
<path d="M142.811 592.555C141.927 592.555 141.203 591.831 141.203 590.947C141.203 590.062 141.927 589.339 142.811 589.339C143.696 589.339 144.42 590.062 144.42 590.947C144.42 591.831 143.696 592.555 142.811 592.555Z" fill="#FFDE00"/>
<path d="M53.8757 548.007C52.1066 548.007 50.6592 546.56 50.6592 544.79C50.6592 543.021 52.1066 541.574 53.8757 541.574C55.6447 541.574 57.0921 543.021 57.0921 544.79C57.0921 546.56 55.6447 548.007 53.8757 548.007Z" fill="#FFDE00"/>
<path d="M137.182 112.496C133.162 112.496 129.945 109.28 129.945 105.259C129.945 101.239 133.162 98.0222 137.182 98.0222C141.203 98.0222 144.419 101.239 144.419 105.259C144.419 109.199 141.123 112.496 137.182 112.496Z" fill="#FFDE00"/>
<path d="M753.298 576.392C750.644 576.392 748.554 574.302 748.554 571.648C748.554 568.994 750.644 566.904 753.298 566.904C755.952 566.904 758.042 568.994 758.042 571.648C758.042 574.302 755.952 576.392 753.298 576.392Z" fill="#FFDE00"/>
<path d="M1097.06 622.227C1094.41 622.227 1092.31 620.136 1092.31 617.483C1092.31 614.829 1094.41 612.738 1097.06 612.738C1099.71 612.738 1101.8 614.829 1101.8 617.483C1101.8 620.136 1099.71 622.227 1097.06 622.227Z" fill="#FFDE00"/>
<path d="M1101.8 524.848C1100.03 524.848 1098.59 523.401 1098.59 521.632C1098.59 519.863 1100.03 518.415 1101.8 518.415C1103.57 518.415 1105.02 519.863 1105.02 521.632C1105.02 523.401 1103.57 524.848 1101.8 524.848Z" fill="#FFDE00"/>
</g>
<defs>
<clipPath id="clip0_667:8079">
<rect width="1422.81" height="656" fill="white"/>
</clipPath>
</defs>
</svg>
