<svg width="105" height="39" viewBox="0 0 105 39" fill="none" xmlns="http://www.w3.org/2000/svg">
<path d="M18.985 4.27125C16.5454 6.46989 14.8126 9.34259 14.0058 12.5261C13.1989 15.7095 13.3542 19.0608 14.452 22.156C15.5498 25.2512 17.5408 27.9513 20.1732 29.915C22.8057 31.8786 25.9613 33.0175 29.241 33.1876C32.5207 33.3577 35.7772 32.5514 38.5987 30.8707C41.4202 29.19 43.6799 26.7104 45.0921 23.7454C46.5042 20.7804 47.0054 17.4632 46.5323 14.2133C46.0591 10.9634 44.6329 7.92687 42.4339 5.48761C40.9742 3.86787 39.2097 2.55153 37.2413 1.61379C35.2728 0.676037 33.1389 0.135244 30.9614 0.0222914C28.7839 -0.0906615 26.6055 0.226438 24.5505 0.955481C22.4956 1.68452 20.6044 2.81123 18.985 4.27125Z" fill="#00C8E6"/>
<path d="M22.2499 10.015C19.8106 12.2139 18.0781 15.0868 17.2716 18.2704C16.4651 21.454 16.6208 24.8052 17.719 27.9003C18.8172 30.9954 20.8085 33.6953 23.4412 35.6586C26.0739 37.6219 29.2297 38.7604 32.5094 38.9301C35.7892 39.0998 39.0456 38.2932 41.8669 36.6121C44.6881 34.931 46.9475 32.4511 48.3593 29.4859C49.7711 26.5207 50.2719 23.2034 49.7983 19.9536C49.3248 16.7038 47.8981 13.6674 45.6988 11.2284C44.2389 9.60891 42.4743 8.29281 40.5057 7.35532C38.5372 6.41782 36.4032 5.8773 34.2257 5.76462C32.0482 5.65193 29.8699 5.96929 27.815 6.69858C25.7602 7.42786 23.8692 8.55478 22.2499 10.015Z" fill="#FFDD00"/>
<path d="M41.2089 28.9364C43.5954 26.7843 45.3063 23.9859 46.1341 20.8806C46.9618 17.7754 46.8708 14.4967 45.8721 11.4422C45.8143 11.3757 45.7594 11.3064 45.6987 11.24C43.1498 8.41413 39.7077 6.54958 35.9483 5.95843C32.189 5.36727 28.3407 6.08538 25.0476 7.99255C21.7544 9.89972 19.2164 12.8802 17.8582 16.4351C16.5 19.99 16.4041 23.9036 17.5866 27.5207C17.6444 27.5872 17.6993 27.6565 17.7571 27.7201C19.217 29.3399 20.9817 30.6563 22.9504 31.5941C24.9191 32.5319 27.0533 33.0727 29.231 33.1856C31.4088 33.2986 33.5874 32.9815 35.6426 32.2524C37.6978 31.5233 39.5892 30.3965 41.2089 28.9364Z" fill="#5C5762"/>
<path d="M53.4592 4.59197H49.2698C49.254 4.59236 49.2383 4.58958 49.2236 4.5838C49.2089 4.57802 49.1955 4.56935 49.1842 4.55831C49.1728 4.54727 49.1639 4.53408 49.1577 4.51952C49.1516 4.50496 49.1484 4.48931 49.1484 4.47351V2.38461C49.1484 2.3688 49.1516 2.35316 49.1577 2.3386C49.1639 2.32403 49.1728 2.31084 49.1842 2.29981C49.1955 2.28877 49.2089 2.2801 49.2236 2.27432C49.2383 2.26854 49.254 2.26576 49.2698 2.26615H60.4626C60.4784 2.26576 60.4941 2.26854 60.5088 2.27432C60.5235 2.2801 60.537 2.28877 60.5483 2.29981C60.5596 2.31084 60.5686 2.32403 60.5747 2.3386C60.5808 2.35316 60.584 2.3688 60.584 2.38461V4.47351C60.584 4.48931 60.5808 4.50496 60.5747 4.51952C60.5686 4.53408 60.5596 4.54727 60.5483 4.55831C60.537 4.56935 60.5235 4.57802 60.5088 4.5838C60.4941 4.58958 60.4784 4.59236 60.4626 4.59197H56.2733C56.2575 4.59197 56.2418 4.59512 56.2272 4.60126C56.2127 4.60739 56.1995 4.61637 56.1885 4.62768C56.1774 4.63899 56.1688 4.65239 56.163 4.6671C56.1572 4.6818 56.1544 4.69752 56.1548 4.71332V16.6025C56.1548 16.6183 56.1516 16.6339 56.1455 16.6485C56.1394 16.663 56.1304 16.6762 56.1191 16.6873C56.1078 16.6983 56.0944 16.707 56.0797 16.7127C56.065 16.7185 56.0492 16.7213 56.0334 16.7209H53.7018C53.6861 16.7213 53.6703 16.7185 53.6556 16.7127C53.6409 16.707 53.6275 16.6983 53.6162 16.6873C53.6049 16.6762 53.5959 16.663 53.5898 16.6485C53.5837 16.6339 53.5805 16.6183 53.5805 16.6025V4.71332C53.5805 4.68113 53.5677 4.65027 53.545 4.62751C53.5222 4.60475 53.4913 4.59197 53.4592 4.59197Z" fill="#4A4451"/>
<path d="M3.09435 14.3951C3.86243 14.3956 4.62745 14.2985 5.37106 14.1062C6.04429 13.9407 6.67909 13.6463 7.24038 13.2394C7.77188 12.851 8.20117 12.3394 8.49142 11.7486C8.81657 11.0419 8.9738 10.2696 8.9508 9.49211C8.96978 8.72383 8.83114 7.95981 8.54342 7.24719C8.29627 6.65456 7.90736 6.13171 7.41085 5.72457C6.90394 5.32154 6.31988 5.02656 5.69465 4.8578C4.98605 4.66262 4.25405 4.56541 3.51907 4.56888H2.69275C2.67695 4.56888 2.66131 4.57203 2.64674 4.57817C2.63218 4.5843 2.61899 4.59328 2.60795 4.60459C2.59691 4.6159 2.58825 4.6293 2.58247 4.64401C2.57669 4.65872 2.57391 4.67443 2.57429 4.69023V14.2738C2.57391 14.2896 2.57669 14.3053 2.58247 14.32C2.58825 14.3347 2.59691 14.3481 2.60795 14.3594C2.61899 14.3707 2.63218 14.3797 2.64674 14.3858C2.66131 14.392 2.67695 14.3951 2.69275 14.3951H3.09435ZM5.24212e-09 2.38463C-4.69573e-06 2.36883 0.00315241 2.35318 0.00928534 2.33862C0.0154183 2.32406 0.0244031 2.31087 0.0357108 2.29983C0.0470184 2.28879 0.0604204 2.28013 0.0751275 2.27435C0.0898346 2.26857 0.10555 2.26579 0.121347 2.26617H4.29627C5.23273 2.2627 6.16357 2.41101 7.05258 2.70533C7.91795 2.98645 8.71711 3.44059 9.40152 4.04015C10.1007 4.66702 10.6573 5.43646 11.0339 6.29663C11.4623 7.30634 11.6711 8.39558 11.6464 9.49211C11.6793 10.5361 11.4685 11.5735 11.0307 12.5218C10.5929 13.4702 9.9401 14.3035 9.12415 14.9556C8.38829 15.5443 7.55114 15.9937 6.65387 16.2818C5.7947 16.568 4.89559 16.7162 3.99001 16.7209H0.121347C0.10555 16.7213 0.0898346 16.7185 0.0751275 16.7128C0.0604204 16.707 0.0470184 16.6983 0.0357108 16.6873C0.0244031 16.6762 0.0154183 16.6631 0.00928534 16.6485C0.00315241 16.6339 -4.69573e-06 16.6183 5.24212e-09 16.6025V2.38463Z" fill="#4A4451"/>
<path d="M0 22.2537H5.69465C9.07793 22.2537 11.1842 24.175 11.1842 27.0815V27.1249C11.1842 30.3637 8.58387 32.0568 5.40573 32.0568H2.53673V36.6969H0V22.2537ZM5.48952 29.7656C7.40796 29.7656 8.60409 28.6908 8.60409 27.1856V27.1451C8.60409 25.452 7.38773 24.565 5.48952 24.565H2.53673V29.7656H5.48952Z" fill="#4A4451"/>
<path d="M53.6933 22.2537H60.1305C61.9478 22.2537 63.3693 22.7911 64.2996 23.6983C65.097 24.5375 65.5292 25.6585 65.5016 26.8157V26.8562C65.5016 29.2282 64.0772 30.6526 62.0778 31.2305L65.9754 36.6969H62.959L59.4082 31.6638H56.2301V36.6969H53.6904L53.6933 22.2537ZM59.9456 29.4131C61.76 29.4131 62.9157 28.4655 62.9157 27.0006V26.9602C62.9157 25.4116 61.8034 24.565 59.9254 24.565H56.2329V29.4131H59.9456Z" fill="#4A4451"/>
<path d="M71.6728 24.6084H67.0703V22.2537H78.8121V24.6084H74.2096V36.6969H71.6728V24.6084Z" fill="#4A4451"/>
<path d="M84.1427 22.1497H86.4945L92.8508 36.694H90.1696L88.7047 33.2067H81.8717L80.3867 36.694H77.7864L84.1427 22.1497ZM87.7715 30.9589L85.2752 25.1804L82.7992 30.9589H87.7715Z" fill="#4A4451"/>
<path d="M94.8704 22.2537H97.4071V34.3884H105V36.6998H94.8704V22.2537Z" fill="#4A4451"/>
</svg>
