<svg width="96" height="36" viewBox="0 0 96 36" fill="none" xmlns="http://www.w3.org/2000/svg">
<path d="M27.5067 1.58496C29.7727 1.584 32.003 2.1494 33.9948 3.22976C35.9866 4.31012 37.6769 5.87118 38.9119 7.77103C40.1468 9.67088 40.8874 11.8493 41.0662 14.1082C41.245 16.3671 40.8565 18.6348 39.9358 20.7053C39.0151 22.7758 37.5915 24.5834 35.7945 25.9637C33.9974 27.344 31.8839 28.2533 29.646 28.6089C27.4081 28.9644 25.1168 28.7551 22.9805 27.9997C20.8441 27.2444 18.9304 25.9671 17.4133 24.284C15.6522 22.3319 14.495 19.911 14.0819 17.3146C13.6687 14.7181 14.0174 12.0576 15.0856 9.65536C16.1538 7.25307 17.8957 5.21209 20.1003 3.77969C22.305 2.34729 24.8776 1.58493 27.5067 1.58496ZM27.5067 2.04075e-05C24.0284 0.000325158 20.6557 1.19505 17.9528 3.38434C15.25 5.57363 13.3808 8.62468 12.6582 12.0271C11.9355 15.4295 12.4032 18.9769 13.9829 22.0757C15.5625 25.1746 18.1585 27.6371 21.3364 29.0511C24.5143 30.4652 28.0814 30.7451 31.4409 29.844C34.8005 28.9429 37.7487 26.9154 39.7924 24.1008C41.8361 21.2863 42.8512 17.8552 42.6681 14.3818C42.4849 10.9083 41.1146 7.60306 38.7862 5.01901C37.3647 3.4364 35.6253 2.17138 33.6817 1.30655C31.7382 0.441725 29.634 -0.00347357 27.5067 2.04075e-05Z" fill="#4A4451"/>
<path d="M30.5023 6.84692C33.2217 6.84583 35.8789 7.66021 38.1306 9.18485C40.3824 10.7095 42.1252 12.8743 43.1339 15.3997C44.1427 17.925 44.3709 20.6948 43.7893 23.3512C43.2076 26.0077 41.8428 28.4286 39.871 30.3014C37.8993 32.1741 35.4113 33.4125 32.7284 33.8567C30.0456 34.3008 27.2912 33.9303 24.8211 32.7929C22.3511 31.6555 20.2788 29.8036 18.8721 27.4763C17.4654 25.1491 16.7888 22.4535 16.9299 19.7378C17.1106 16.2596 18.6192 12.9834 21.1445 10.5848C23.6699 8.18628 27.0194 6.84833 30.5023 6.84692ZM30.5023 5.26198C27.024 5.26229 23.6513 6.45702 20.9484 8.64631C18.2456 10.8356 16.3764 13.8867 15.6538 17.2891C14.9311 20.6915 15.3988 24.2388 16.9785 27.3377C18.5582 30.4366 21.1541 32.899 24.332 34.3131C27.5099 35.7271 31.077 36.007 34.4365 35.1059C37.7961 34.2048 40.7443 32.1774 42.788 29.3628C44.8317 26.5482 45.8468 23.1172 45.6637 19.6437C45.4805 16.1703 44.1102 12.865 41.7818 10.281C40.3602 8.69849 38.6208 7.43357 36.6772 6.56875C34.7337 5.70393 32.6296 5.25865 30.5023 5.26198Z" fill="#4A4451"/>
<path d="M48.877 4.20015H45.0467C45.0173 4.20015 44.9891 4.18846 44.9683 4.16766C44.9475 4.14685 44.9358 4.11863 44.9358 4.0892V2.18199C44.9358 2.15256 44.9475 2.12435 44.9683 2.10354C44.9891 2.08273 45.0173 2.07104 45.0467 2.07104H55.2802C55.3096 2.07104 55.3378 2.08273 55.3586 2.10354C55.3794 2.12435 55.3911 2.15256 55.3911 2.18199V4.0892C55.3911 4.11863 55.3794 4.14685 55.3586 4.16766C55.3378 4.18846 55.3096 4.20015 55.2802 4.20015H51.4499C51.4212 4.20015 51.3936 4.21156 51.3733 4.23187C51.353 4.25218 51.3416 4.27973 51.3416 4.30846V15.1785C51.3416 15.2079 51.3299 15.2362 51.3091 15.257C51.2883 15.2778 51.2601 15.2895 51.2307 15.2895H49.0989C49.0695 15.2895 49.0413 15.2778 49.0205 15.257C48.9997 15.2362 48.988 15.2079 48.988 15.1785V4.30846C48.988 4.29401 48.9851 4.27971 48.9795 4.26639C48.9739 4.25308 48.9657 4.24101 48.9553 4.23092C48.945 4.22083 48.9327 4.21291 48.9193 4.20762C48.9058 4.20234 48.8915 4.1998 48.877 4.20015Z" fill="#4A4451"/>
<path d="M2.82912 13.1603C3.53128 13.1594 4.23057 13.0706 4.91068 12.8961C5.52542 12.7426 6.1054 12.4736 6.61978 12.1036C7.10841 11.743 7.50189 11.2688 7.76622 10.7221C8.06323 10.0759 8.20697 9.36988 8.18623 8.65903C8.20015 7.96262 8.07254 7.27064 7.81113 6.62501C7.58517 6.08393 7.22955 5.60674 6.77563 5.23554C6.31149 4.86812 5.77772 4.59854 5.20654 4.44307C4.55805 4.26911 3.88881 4.18468 3.21743 4.19213H2.46194C2.43322 4.19213 2.40567 4.20354 2.38536 4.22385C2.36505 4.24416 2.35364 4.27171 2.35364 4.30043V13.0414C2.35329 13.0558 2.35583 13.0702 2.36111 13.0836C2.3664 13.0971 2.37432 13.1094 2.38441 13.1197C2.39451 13.13 2.40656 13.1382 2.41988 13.1438C2.43319 13.1495 2.4475 13.1523 2.46194 13.1523L2.82912 13.1603ZM0 2.18189C0 2.15246 0.011689 2.12425 0.0324954 2.10344C0.0533018 2.08264 0.0815213 2.07095 0.110946 2.07095H3.92802C4.78413 2.06888 5.635 2.20445 6.44808 2.47246C7.23939 2.73048 7.97004 3.14658 8.59567 3.69551C9.23606 4.26759 9.74518 4.97135 10.0882 5.75858C10.4801 6.68164 10.671 7.67759 10.6482 8.68016C10.6782 9.6347 10.4855 10.5831 10.0852 11.4502C9.6849 12.3172 9.08809 13.0791 8.34208 13.6754C7.66864 14.2126 6.90344 14.6234 6.08354 14.8879C5.29765 15.1481 4.47584 15.2836 3.64801 15.2894H0.110946C0.0815213 15.2894 0.0533018 15.2777 0.0324954 15.2569C0.011689 15.2361 0 15.2078 0 15.1784V2.18189Z" fill="#4A4451"/>
<path d="M0 20.3612H5.20654C8.29982 20.3612 10.2255 22.1152 10.2255 24.7753V24.8122C10.2255 27.7734 7.84811 29.3214 4.94238 29.3214H2.3193V33.5664H0V20.3612ZM5.01899 27.2293C6.77299 27.2293 7.8666 26.2493 7.8666 24.873V24.8334C7.8666 23.2881 6.7545 22.4771 5.01899 22.4771H2.3193V27.2319L5.01899 27.2293Z" fill="#4A4451"/>
<path d="M49.091 20.3612H54.9764C56.638 20.3612 57.9376 20.8525 58.7882 21.682C59.5143 22.4447 59.9093 23.4636 59.8871 24.5164V24.5534C59.8871 26.7248 58.5848 28.0244 56.7569 28.5527L60.3203 33.5532H57.5625L54.3161 28.949H51.4103V33.5532H49.0884L49.091 20.3612ZM54.8074 26.907C56.4663 26.907 57.5229 26.0379 57.5229 24.6987V24.6617C57.5229 23.2458 56.5059 22.4745 54.7889 22.4745H51.413V26.907H54.8074Z" fill="#4A4451"/>
<path d="M65.5296 22.4982H61.3215V20.3612H72.0569V22.5114H67.8489V33.5664H65.5296V22.4982Z" fill="#4A4451"/>
<path d="M76.9306 20.2529H79.0808L84.8923 33.5532H82.4409L81.1016 30.3649H74.8543L73.4966 33.5532H71.1191L76.9306 20.2529ZM80.2484 28.3071L77.9661 23.0239L75.7023 28.3071H80.2484Z" fill="#4A4451"/>
<path d="M86.7385 20.3612H89.0578V31.4558H95.9999V33.5691H86.7385V20.3612Z" fill="#4A4451"/>
</svg>
