<svg fill="none" xmlns="http://www.w3.org/2000/svg" viewBox="0 0 112 120">
  <path d="M39.324 100.914V113h-2.482v-12.086h2.482Zm3.718 0v1.951h-9.86v-1.951h9.86Zm-.556 7.686v-.174c0-.658.094-1.264.283-1.818a4.197 4.197 0 0 1 .821-1.452c.36-.41.803-.728 1.328-.955.526-.232 1.13-.349 1.81-.349.68 0 1.287.117 1.818.349.531.227.977.545 1.336.955.366.409.642.893.83 1.452a5.62 5.62 0 0 1 .283 1.818v.174c0 .653-.094 1.259-.283 1.818a4.23 4.23 0 0 1-.83 1.453 3.69 3.69 0 0 1-1.328.955c-.526.226-1.129.34-1.81.34-.68 0-1.286-.114-1.817-.34a3.77 3.77 0 0 1-1.337-.955 4.304 4.304 0 0 1-.821-1.453 5.664 5.664 0 0 1-.283-1.818Zm2.391-.174v.174c0 .377.033.728.1 1.055.066.326.171.614.315.863.15.243.343.434.581.573.238.138.529.207.872.207.332 0 .617-.069.855-.207.238-.139.428-.33.572-.573.144-.249.25-.537.316-.863.072-.327.108-.678.108-1.055v-.174a4.7 4.7 0 0 0-.108-1.029 2.71 2.71 0 0 0-.324-.863 1.606 1.606 0 0 0-.573-.598c-.238-.144-.525-.216-.863-.216-.337 0-.625.072-.863.216a1.696 1.696 0 0 0-.573.598 2.841 2.841 0 0 0-.315.863c-.067.321-.1.664-.1 1.029Zm9.977-8.184V113h-2.39v-12.758h2.39Zm5.662 3.776-3.902 4.45-2.091 2.116-.872-1.726 1.66-2.109 2.333-2.731h2.872ZM58.034 113l-2.657-4.151 1.652-1.444L60.79 113h-2.755Zm7.479.166c-.698 0-1.323-.111-1.876-.332a4.127 4.127 0 0 1-1.411-.938 4.181 4.181 0 0 1-.88-1.386 4.674 4.674 0 0 1-.307-1.694v-.332c0-.68.096-1.303.29-1.867a4.39 4.39 0 0 1 .83-1.47 3.64 3.64 0 0 1 1.328-.954c.52-.227 1.107-.341 1.76-.341.636 0 1.2.106 1.693.316.493.21.905.509 1.237.896.338.388.592.853.764 1.395.171.537.257 1.134.257 1.793v.996H62.06v-1.594h4.79v-.182c0-.332-.062-.629-.183-.889a1.406 1.406 0 0 0-.532-.63c-.238-.155-.542-.233-.913-.233-.315 0-.586.069-.813.208a1.602 1.602 0 0 0-.557.581 3.158 3.158 0 0 0-.315.88c-.066.332-.1.697-.1 1.095v.332c0 .36.05.692.15.996.105.305.252.568.44.789.194.221.426.393.697.515.277.121.59.182.938.182a2.91 2.91 0 0 0 1.204-.249c.376-.171.7-.429.97-.772L69 111.539a3.539 3.539 0 0 1-.772.78 4.111 4.111 0 0 1-1.162.614 4.79 4.79 0 0 1-1.552.233Zm7.387-7.23V113h-2.39v-8.982h2.241l.15 1.918Zm-.348 2.258h-.648c0-.664.086-1.262.258-1.793.171-.537.412-.994.722-1.37.31-.382.678-.672 1.104-.871a3.324 3.324 0 0 1 1.444-.308c.42 0 .805.061 1.154.183.349.122.647.315.896.581.255.266.449.617.582 1.054.138.437.207.971.207 1.602V113h-2.407v-5.736c0-.398-.056-.708-.166-.93a.93.93 0 0 0-.49-.464c-.21-.095-.47-.142-.78-.142-.321 0-.6.064-.839.191a1.673 1.673 0 0 0-.58.532c-.15.221-.264.481-.341.78-.078.299-.116.62-.116.963Z" fill="#4A4552"/>
  <path fill-rule="evenodd" clip-rule="evenodd" d="M39.661 9.77a20.198 20.198 0 0 0-3.404 11.223 20.24 20.24 0 0 0 17.612 20.028c-.003.055-.005.11-.005.167v14.994h-11.13a2.596 2.596 0 0 0-.005 5.19h11.135v6.192h-11.13a2.596 2.596 0 0 0-.005 5.19h11.135v3.918a2.595 2.595 0 0 0 5.19 0V41.188a2.63 2.63 0 0 0-.004-.162 20.206 20.206 0 0 0 16.074-12.303A20.198 20.198 0 0 0 60.401 1.181a20.206 20.206 0 0 0-20.74 8.59Zm29.28 2.884a15.008 15.008 0 0 1 2.53 8.339 15.05 15.05 0 0 1-15.012 15.01 15.014 15.014 0 0 1-13.869-9.266A15.008 15.008 0 0 1 53.53 6.272a15.014 15.014 0 0 1 15.411 6.382Z" fill="#4A4552"/>
  <ellipse cx="56" cy="79.5" rx="56" ry="14.5" fill="url(#a)"/>
  <defs>
    <radialGradient id="a" cx="0" cy="0" r="1" gradientUnits="userSpaceOnUse" gradientTransform="matrix(0 14.5 -56 0 56 79.5)">
      <stop stop-color="#6B6B6B" stop-opacity=".33"/>
      <stop offset="1" stop-color="#6B6B6B" stop-opacity="0"/>
    </radialGradient>
  </defs>
</svg>