<svg width="229" height="245" viewBox="0 0 229 245" fill="none" xmlns="http://www.w3.org/2000/svg">
<path d="M34.4563 26.8162C19.14 40.6199 8.26104 58.6555 3.19528 78.6423C-1.87049 98.629 -0.895545 119.669 5.99681 139.102C12.8892 158.534 25.3893 175.487 41.9165 187.815C58.4437 200.143 78.2556 207.293 98.8466 208.361C119.438 209.43 139.883 204.368 157.597 193.816C175.311 183.264 189.498 167.696 198.364 149.08C207.23 130.465 210.377 109.639 207.406 89.2353C204.436 68.8317 195.481 49.7672 181.675 34.4528C172.511 24.2836 161.433 16.0193 149.075 10.1318C136.716 4.24436 123.319 0.849103 109.648 0.139952C95.9767 -0.5692 82.3 1.42165 69.3985 5.99879C56.497 10.5759 44.6236 17.6497 34.4563 26.8162Z" fill="#00C8E6"/>
<path d="M54.9531 62.8771C39.6384 76.6827 28.7615 94.7197 23.6981 114.707C18.6347 134.694 19.6121 155.734 26.5068 175.166C33.4015 194.598 45.9038 211.549 62.4325 223.875C78.9613 236.201 98.7741 243.349 119.365 244.415C139.957 245.481 160.401 240.416 178.114 229.862C195.827 219.308 210.012 203.738 218.876 185.121C227.739 166.505 230.883 145.678 227.91 125.275C224.937 104.872 215.98 85.8083 202.172 70.4957C193.007 60.3277 181.928 52.0649 169.569 46.179C157.209 40.2932 143.812 36.8996 130.141 36.1921C116.47 35.4847 102.793 37.4772 89.8926 42.0558C76.9918 46.6345 65.1193 53.7096 54.9531 62.8771Z" fill="#FFDD00"/>
<path d="M173.984 181.672C188.968 168.16 199.709 150.591 204.906 131.095C210.103 111.6 209.531 91.0153 203.261 71.838C202.898 71.4208 202.554 70.9855 202.173 70.5683C186.17 52.8269 164.559 41.1208 140.957 37.4093C117.355 33.6979 93.194 38.2064 72.5188 50.1802C51.8436 62.1539 35.9087 80.8663 27.3816 103.185C18.8544 125.504 18.2525 150.074 25.6766 172.784C26.0394 173.201 26.384 173.636 26.7468 174.035C35.9127 184.205 46.9921 192.47 59.3522 198.357C71.7124 204.245 85.1113 207.641 98.7837 208.35C112.456 209.059 126.134 207.068 139.037 202.49C151.94 197.913 163.815 190.839 173.984 181.672Z" fill="#5C5762"/>
</svg>
