<svg fill="none" xmlns="http://www.w3.org/2000/svg" viewBox="0 0 498 391">
  <path d="M98.199 173c3.919.001 7.774.988 11.199 2.869a22.907 22.907 0 0 1 8.372 7.879l8.247 13.125a7.706 7.706 0 0 0 2.872 3.394 7.865 7.865 0 0 0 4.293 1.27h129.827c5.825 0 11.411 2.28 15.534 6.339A21.545 21.545 0 0 1 285 223.187v145.164c-.012 5.746-2.334 11.252-6.457 15.311-4.123 4.059-9.709 6.338-15.534 6.338H22.945c-5.817-.012-11.391-2.297-15.504-6.354-4.113-4.058-6.429-9.557-6.441-15.295V191.983c0-5.035 2.027-9.863 5.636-13.423A19.376 19.376 0 0 1 20.242 173h77.957Z" stroke="#6B6B6B" stroke-width="2" stroke-miterlimit="10"/>
  <circle cx="75.5" cy="257.5" r="11.5" fill="#00C8E6"/>
  <circle cx="75.5" cy="295.5" r="11.5" fill="#00C8E6"/>
  <circle cx="75.5" cy="333.5" r="11.5" fill="#00C8E6"/>
  <circle cx="220.5" cy="257.5" r="11.5" fill="#6B6B6B"/>
  <circle r="1.643" transform="matrix(-1 0 0 1 214.586 257.5)" fill="#fff"/>
  <circle r="1.643" transform="matrix(-1 0 0 1 220.5 257.5)" fill="#fff"/>
  <circle r="1.643" transform="matrix(-1 0 0 1 226.415 257.5)" fill="#fff"/>
  <circle opacity=".2" cx="220.5" cy="295.5" r="11.5" fill="#6B6B6B"/>
  <circle r="1.643" transform="matrix(-1 0 0 1 214.586 295.5)" fill="#fff"/>
  <circle r="1.643" transform="matrix(-1 0 0 1 220.5 295.5)" fill="#fff"/>
  <circle r="1.643" transform="matrix(-1 0 0 1 226.415 295.5)" fill="#fff"/>
  <circle opacity=".2" cx="220.5" cy="333.5" r="11.5" fill="#6B6B6B"/>
  <circle r="1.643" transform="matrix(-1 0 0 1 214.586 333.5)" fill="#fff"/>
  <circle r="1.643" transform="matrix(-1 0 0 1 220.5 333.5)" fill="#fff"/>
  <circle r="1.643" transform="matrix(-1 0 0 1 226.415 333.5)" fill="#fff"/>
  <circle cx="56.5" cy="90.5" r="27.5" fill="#F99"/>
  <path stroke="#fff" stroke-width="2.5" d="M47 89.659h20M57.341 80v20"/>
  <circle cx="106" cy="149" r="40" fill="#29C2AB"/>
  <path stroke="#fff" stroke-width="2.5" d="M87 149.477h38M105.523 130v38"/>
  <circle cx="185.5" cy="19.5" r="19.5" fill="#FFDE00"/>
  <path stroke="#fff" stroke-width="2.5" d="M176 18.659h20M186.341 9v20"/>
  <path stroke="#6B6B6B" stroke-width="2" d="M97 257h99m-99 38h99m-99 38h99"/>
  <g filter="url(#a)">
    <path d="m254.408 272.161-27.672-10.081c-.461-.194-.841.186-.647.647l10.073 27.68c.207.493.862.615 1.054.199l4.315-6.591c.148-.323.605-.338.905-.029l6.457 6.696c.249.249.612.294.815.09l5.058-5.058c.202-.202.162-.57-.09-.815l-6.697-6.466c-.302-.302-.294-.757.028-.904l6.591-4.316c.421-.186.301-.845-.19-1.052Z" fill="#fff"/>
    <path d="m254.408 272.161-27.672-10.081c-.461-.194-.841.186-.647.647l10.073 27.68c.207.493.862.615 1.054.199l4.315-6.591c.148-.323.605-.338.905-.029l6.457 6.696c.249.249.612.294.815.09l5.058-5.058c.202-.202.162-.57-.09-.815l-6.697-6.466c-.302-.302-.294-.757.028-.904l6.591-4.316c.421-.186.301-.845-.19-1.052Z" stroke="#4A4552" stroke-miterlimit="10"/>
  </g>
  <g filter="url(#b)">
    <rect x="267" y="294" width="78" height="221" rx="39" transform="rotate(-90 267 294)" fill="#fff"/>
  </g>
  <path d="m323.277 247.337-19.785 16.478-5.704.594 1.581-5.473 19.784-16.476 4.124 4.877Z" stroke="#4A4552" stroke-width="1.5" stroke-linecap="round" stroke-linejoin="round"/>
  <path d="m319.153 242.464.924-.768a3.22 3.22 0 0 1 2.32-.68 3.214 3.214 0 0 1 2.14 1.122 3.17 3.17 0 0 1-.337 4.436l-.923.769" stroke="#4A4552" stroke-width="1.5" stroke-linecap="round" stroke-linejoin="round"/>
  <path d="M297 268.777h30.81M429 245.45h28.113m-9.038 24.62h-10.037a3.035 3.035 0 0 1-2.058-.814 3.198 3.198 0 0 1-1.001-2.021l-2.219-21.785h20.593l-2.215 21.785a3.199 3.199 0 0 1-1.002 2.023c-.566.523-1.3.812-2.061.812v0Z" stroke="#4A4552" stroke-width="1.5" stroke-miterlimit="10" stroke-linecap="round"/>
  <path d="M442.448 240h1.216a4.23 4.23 0 0 1 3.032 1.294 4.477 4.477 0 0 1 1.256 3.12v1.038h-9.794v-1.038c0-1.171.452-2.294 1.257-3.121a4.227 4.227 0 0 1 3.033-1.293v0Z" stroke="#4A4552" stroke-width="1.5" stroke-miterlimit="10" stroke-linecap="round"/>
  <path d="M374.451 263.343c2.862 0 5.182-2.259 5.182-5.045s-2.32-5.045-5.182-5.045c-2.861 0-5.181 2.259-5.181 5.045s2.32 5.045 5.181 5.045Z" stroke="#4A4552" stroke-width="1.5" stroke-miterlimit="10"/>
  <path d="m378.658 254.204 7.385-7.191m-3.565 3.786 2.694 2.623m-.323-4.933 2.694 2.625m-2.968-11.28a16.733 16.733 0 0 0-9.433-.904 16.46 16.46 0 0 0-8.36 4.351 15.774 15.774 0 0 0-4.468 8.139 15.51 15.51 0 0 0 .929 9.186m8.79 8.565a16.733 16.733 0 0 0 9.433.904 16.464 16.464 0 0 0 8.36-4.351 15.774 15.774 0 0 0 4.468-8.139 15.51 15.51 0 0 0-.929-9.186" stroke="#4A4552" stroke-width="1.5" stroke-miterlimit="10" stroke-linecap="round"/>
  <path d="m382.393 241.697 3.401-1.383-1.421-3.314m-10.312 30.305-3.401 1.384 1.421 3.311" stroke="#4A4552" stroke-width="1.5" stroke-linecap="round" stroke-linejoin="round"/>
  <defs>
    <filter id="a" x="221.537" y="261.529" width="37.86" height="37.874" filterUnits="userSpaceOnUse" color-interpolation-filters="sRGB">
      <feFlood flood-opacity="0" result="BackgroundImageFix"/>
      <feColorMatrix in="SourceAlpha" values="0 0 0 0 0 0 0 0 0 0 0 0 0 0 0 0 0 0 127 0" result="hardAlpha"/>
      <feOffset dy="4"/>
      <feGaussianBlur stdDeviation="2"/>
      <feComposite in2="hardAlpha" operator="out"/>
      <feColorMatrix values="0 0 0 0 0 0 0 0 0 0 0 0 0 0 0 0 0 0 0.25 0"/>
      <feBlend in2="BackgroundImageFix" result="effect1_dropShadow_1379_9537"/>
      <feBlend in="SourceGraphic" in2="effect1_dropShadow_1379_9537" result="shape"/>
    </filter>
    <filter id="b" x="257" y="210" width="241" height="98" filterUnits="userSpaceOnUse" color-interpolation-filters="sRGB">
      <feFlood flood-opacity="0" result="BackgroundImageFix"/>
      <feColorMatrix in="SourceAlpha" values="0 0 0 0 0 0 0 0 0 0 0 0 0 0 0 0 0 0 127 0" result="hardAlpha"/>
      <feOffset dy="4"/>
      <feGaussianBlur stdDeviation="5"/>
      <feComposite in2="hardAlpha" operator="out"/>
      <feColorMatrix values="0 0 0 0 0.290196 0 0 0 0 0.266667 0 0 0 0 0.317647 0 0 0 0.25 0"/>
      <feBlend in2="BackgroundImageFix" result="effect1_dropShadow_1379_9537"/>
      <feBlend in="SourceGraphic" in2="effect1_dropShadow_1379_9537" result="shape"/>
    </filter>
  </defs>
</svg>