<svg fill="none" xmlns="http://www.w3.org/2000/svg" viewBox="0 0 79 60">
  <path d="M27.128.643c1.061 0 2.105.267 3.032.775a6.194 6.194 0 0 1 2.267 2.127l2.232 3.544c.163.374.433.693.778.916.345.224.749.344 1.162.343h35.148c1.576 0 3.089.616 4.205 1.712a5.81 5.81 0 0 1 1.748 4.134v39.195a5.81 5.81 0 0 1-1.748 4.134 6.003 6.003 0 0 1-4.206 1.712H6.757a6.003 6.003 0 0 1-4.198-1.716 5.81 5.81 0 0 1-1.744-4.13V5.77c0-1.36.549-2.663 1.526-3.625a5.253 5.253 0 0 1 3.683-1.5h21.105Z" stroke="#6B6B6B" stroke-miterlimit="10"/>
</svg>