<svg fill="none" xmlns="http://www.w3.org/2000/svg" viewBox="0 0 86 101">
  <path d="m2 9.997 81.735 16.936M44.314 2.584l3.535.733a12.69 12.69 0 0 1 8.053 5.51 12.88 12.88 0 0 1 1.81 9.638l-.612 2.956-28.475-5.9.613-2.956a12.88 12.88 0 0 1 5.494-8.128 12.69 12.69 0 0 1 9.582-1.853v0Zm11.65 96.097H26.159a9.103 9.103 0 0 1-6.109-2.366 9.231 9.231 0 0 1-2.972-5.875L10.49 27.103h61.143L65.058 90.44a9.232 9.232 0 0 1-2.977 5.88 9.103 9.103 0 0 1-6.117 2.361v0Z" stroke="#4A4552" stroke-width="3" stroke-miterlimit="10" stroke-linecap="round"/>
  <path stroke="#4A4552" stroke-width="3" d="m30.304 26.939 2.513 71.956m18-71.851L48.304 99"/>
</svg>