<svg fill="none" xmlns="http://www.w3.org/2000/svg" viewBox="0 0 83 105">
  <g clip-path="url(#a)">
    <mask id="b" fill="#fff">
      <path fill-rule="evenodd" clip-rule="evenodd" d="M63.503 45.207V32.264c0-5.894-2.304-11.546-6.404-15.714-4.1-4.168-9.662-6.509-15.461-6.509-5.8 0-11.36 2.341-15.461 6.509-4.101 4.168-6.405 9.82-6.405 15.714v12.943h43.73Zm-53.603 0V32.264c0-8.555 3.344-16.76 9.296-22.809C25.148 3.405 33.22.007 41.638.007c8.417 0 16.49 3.399 22.441 9.448 5.952 6.05 9.296 14.254 9.296 22.81v12.942h5.105c1.2 0 2.352.485 3.201 1.348a4.64 4.64 0 0 1 1.326 3.254v50.611a4.64 4.64 0 0 1-1.326 3.254 4.49 4.49 0 0 1-3.2 1.347H4.52a4.49 4.49 0 0 1-3.202-1.347 4.64 4.64 0 0 1-1.326-3.254V49.809c0-1.22.477-2.391 1.326-3.254a4.49 4.49 0 0 1 3.201-1.348H9.9Zm35.53 48.18-1.045-14.202a9.797 9.797 0 0 0 5.392-4.21 10.068 10.068 0 0 0 1.386-6.766 9.979 9.979 0 0 0-3.29-6.047 9.682 9.682 0 0 0-6.375-2.404c-2.34 0-4.601.853-6.374 2.404a9.979 9.979 0 0 0-3.29 6.047 10.068 10.068 0 0 0 1.385 6.766 9.797 9.797 0 0 0 5.393 4.21l-1.045 14.203c0 .248.097.487.27.663a.915.915 0 0 0 .653.275h6.017c.245 0 .48-.1.653-.275a.946.946 0 0 0 .27-.663Z"/>
    </mask>
    <path fill-rule="evenodd" clip-rule="evenodd" d="M63.503 45.207V32.264c0-5.894-2.304-11.546-6.404-15.714-4.1-4.168-9.662-6.509-15.461-6.509-5.8 0-11.36 2.341-15.461 6.509-4.101 4.168-6.405 9.82-6.405 15.714v12.943h43.73Zm-53.603 0V32.264c0-8.555 3.344-16.76 9.296-22.809C25.148 3.405 33.22.007 41.638.007c8.417 0 16.49 3.399 22.441 9.448 5.952 6.05 9.296 14.254 9.296 22.81v12.942h5.105c1.2 0 2.352.485 3.201 1.348a4.64 4.64 0 0 1 1.326 3.254v50.611a4.64 4.64 0 0 1-1.326 3.254 4.49 4.49 0 0 1-3.2 1.347H4.52a4.49 4.49 0 0 1-3.202-1.347 4.64 4.64 0 0 1-1.326-3.254V49.809c0-1.22.477-2.391 1.326-3.254a4.49 4.49 0 0 1 3.201-1.348H9.9Zm35.53 48.18-1.045-14.202a9.797 9.797 0 0 0 5.392-4.21 10.068 10.068 0 0 0 1.386-6.766 9.979 9.979 0 0 0-3.29-6.047 9.682 9.682 0 0 0-6.375-2.404c-2.34 0-4.601.853-6.374 2.404a9.979 9.979 0 0 0-3.29 6.047 10.068 10.068 0 0 0 1.385 6.766 9.797 9.797 0 0 0 5.393 4.21l-1.045 14.203c0 .248.097.487.27.663a.915.915 0 0 0 .653.275h6.017c.245 0 .48-.1.653-.275a.946.946 0 0 0 .27-.663Z" fill="#FFDE00"/>
    <path d="M63.503 45.207v1h1v-1h-1ZM57.099 16.55l-.713.701.713-.701Zm-30.922 0-.713-.701.713.701Zm-6.405 28.657h-1v1h1v-1Zm-9.872 0v1h1v-1h-1Zm9.296-35.752.713.701-.713-.701Zm44.883 0-.712.701.712-.701Zm9.296 35.752h-1v1h1v-1ZM1.319 103.674l-.713.701.713-.701Zm0-57.119-.713-.701.713.701Zm43.066 32.63-.3-.954-.755.237.058.79.997-.073Zm1.045 14.203h1v-.037l-.003-.037-.997.074Zm4.347-18.413.851.525-.85-.525Zm1.386-6.766.99-.147-.99.147Zm-19.33 0-.989-.147.99.147Zm1.386 6.766-.85.525.85-.525Zm5.393 4.21.997.073.058-.79-.756-.237-.3.954Zm-1.045 14.203-.997-.074-.003.037v.037h1Zm.27.663-.713.701.713-.701Zm7.323 0 .712.701-.712-.701Zm19.343-48.844V32.264h-2v12.943h2Zm0-12.943c0-6.154-2.405-12.059-6.691-16.415l-1.426 1.402c3.915 3.98 6.117 9.38 6.117 15.013h2ZM57.812 15.85c-4.287-4.358-10.105-6.81-16.174-6.81v2c5.528 0 10.834 2.232 14.748 6.21l1.425-1.402ZM41.638 9.04c-6.07 0-11.887 2.45-16.174 6.808l1.425 1.402c3.915-3.978 9.22-6.21 14.749-6.21v-2Zm-16.174 6.808c-4.287 4.356-6.692 10.261-6.692 16.415h2c0-5.634 2.203-11.034 6.117-15.013l-1.425-1.402Zm-6.692 16.415v12.943h2V32.264h-2Zm44.73 11.943h-43.73v2h43.73v-2Zm-52.602 1V32.264h-2v12.943h2Zm0-12.943c0-8.295 3.242-16.247 9.009-22.108l-1.426-1.402C12.345 14.992 8.9 23.449 8.9 32.264h2Zm9.009-22.108c5.765-5.86 13.582-9.149 21.729-9.149v-2c-8.688 0-17.017 3.508-23.155 9.747l1.426 1.402Zm21.729-9.149c8.146 0 15.963 3.29 21.729 9.15l1.425-1.403C58.654 2.515 50.325-.993 41.638-.993v2Zm21.729 9.15c5.766 5.86 9.008 13.812 9.008 22.107h2c0-8.815-3.445-17.272-9.583-23.51l-1.425 1.402Zm9.008 22.107v12.943h2V32.264h-2Zm6.105 11.943h-5.105v2h5.105v-2Zm3.914 1.647a5.49 5.49 0 0 0-3.914-1.647v2c.93 0 1.826.376 2.488 1.05l1.426-1.403Zm1.613 3.955a5.64 5.64 0 0 0-1.613-3.955l-1.426 1.402a3.64 3.64 0 0 1 1.04 2.553h2Zm0 50.611v-50.61h-2v50.611h2Zm-1.613 3.955a5.638 5.638 0 0 0 1.613-3.955h-2c0 .961-.375 1.878-1.039 2.552l1.426 1.403Zm-3.914 1.646a5.49 5.49 0 0 0 3.914-1.646l-1.426-1.403a3.489 3.489 0 0 1-2.488 1.049v2Zm-73.96 0h73.96v-2H4.52v2Zm-3.914-1.646a5.49 5.49 0 0 0 3.914 1.646v-2c-.93 0-1.825-.375-2.488-1.049l-1.426 1.403Zm-1.613-3.955a5.64 5.64 0 0 0 1.613 3.955l1.426-1.403a3.638 3.638 0 0 1-1.039-2.552h-2Zm0-50.611v50.611h2v-50.61h-2Zm1.613-3.955a5.64 5.64 0 0 0-1.613 3.955h2c0-.96.376-1.878 1.039-2.553L.606 45.854Zm3.914-1.647a5.49 5.49 0 0 0-3.914 1.647l1.426 1.402a3.49 3.49 0 0 1 2.488-1.049v-2Zm5.38 0H4.52v2H9.9v-2Zm33.488 35.051 1.045 14.203 1.994-.147-1.044-14.203-1.995.147Zm5.538-4.809a8.797 8.797 0 0 1-4.84 3.782l.599 1.908a10.797 10.797 0 0 0 5.943-4.639l-1.702-1.05Zm1.248-6.093a9.068 9.068 0 0 1-1.248 6.093l1.702 1.051a11.068 11.068 0 0 0 1.525-7.438l-1.979.294Zm-2.959-5.441a8.98 8.98 0 0 1 2.96 5.441l1.978-.294a10.978 10.978 0 0 0-3.622-6.653l-1.316 1.505Zm-5.717-2.157c2.096 0 4.124.764 5.717 2.156l1.316-1.505a10.682 10.682 0 0 0-7.033-2.65v2Zm-5.716 2.156a8.682 8.682 0 0 1 5.716-2.156v-2c-2.583 0-5.078.942-7.033 2.65l1.317 1.506Zm-2.96 5.442a8.979 8.979 0 0 1 2.96-5.441l-1.317-1.506a10.98 10.98 0 0 0-3.62 6.653l1.977.294Zm1.248 6.093a9.068 9.068 0 0 1-1.248-6.093l-1.978-.294A11.068 11.068 0 0 0 32.37 75.5l1.701-1.05Zm4.841 3.782a8.797 8.797 0 0 1-4.84-3.782L32.368 75.5a10.797 10.797 0 0 0 5.943 4.639l.6-1.908Zm-.347 15.23 1.045-14.203-1.995-.147-1.044 14.203 1.994.147Zm-.014-.111a.054.054 0 0 1 .017.038h-2c0 .508.199 1 .557 1.364l1.426-1.402Zm-.06-.024c.026 0 .047.01.06.024l-1.426 1.402c.36.366.85.574 1.366.574v-2Zm6.017 0H38.49v2h6.017v-2Zm-.06.024a.085.085 0 0 1 .06-.024v2c.515 0 1.006-.208 1.365-.574l-1.425-1.402Zm-.017.038a.05.05 0 0 1 .017-.038l1.425 1.402c.36-.364.558-.855.558-1.364h-2Z" fill="#FFDE00" mask="url(#b)"/>
  </g>
  <defs>
    <clipPath id="a">
      <path fill="#fff" d="M0 0h83v105H0z"/>
    </clipPath>
  </defs>
</svg>