<svg fill="none" xmlns="http://www.w3.org/2000/svg" viewBox="0 0 304 334">
  <rect x="140.75" y="237.75" width="137.5" height="55.5" rx="27.75" fill="#F6F6F6"/>
  <path d="m180.909 265.5-8.579 8.58-8.58-8.58" stroke="#4A4552" stroke-width="2"/>
  <path d="M172.33 274.08c0-10.14-.78-17.16 10.92-17.16" stroke="#4A4552" stroke-width="2" stroke-miterlimit="10"/>
  <path d="M199.488 258.281V272.5h-1.884v-14.219h1.884Zm4.951 5.752v8.467h-1.816v-10.566h1.719l.097 2.099Zm-.371 2.783-.839-.029c.006-.723.1-1.39.283-2.002a4.752 4.752 0 0 1 .81-1.611 3.605 3.605 0 0 1 1.338-1.055c.534-.254 1.152-.381 1.856-.381.494 0 .95.072 1.367.215.416.137.778.355 1.084.654.306.3.543.684.713 1.153.169.469.254 1.035.254 1.699v7.041h-1.807v-6.953c0-.554-.094-.996-.283-1.328a1.623 1.623 0 0 0-.782-.723c-.338-.156-.735-.234-1.191-.234-.534 0-.98.094-1.338.283a2.262 2.262 0 0 0-.859.781 3.523 3.523 0 0 0-.469 1.143 6.393 6.393 0 0 0-.137 1.347Zm6.846-.996-1.211.371a5.345 5.345 0 0 1 .283-1.67 4.528 4.528 0 0 1 .811-1.425 3.832 3.832 0 0 1 1.318-.987c.521-.247 1.117-.371 1.787-.371.567 0 1.068.075 1.504.225.443.15.814.381 1.114.693.306.306.537.7.693 1.182.156.482.234 1.055.234 1.719v6.943h-1.816v-6.963c0-.592-.095-1.051-.283-1.377a1.477 1.477 0 0 0-.782-.693c-.332-.137-.729-.205-1.191-.205a2.56 2.56 0 0 0-1.055.205 2.176 2.176 0 0 0-.771.566 2.477 2.477 0 0 0-.479.811 3.011 3.011 0 0 0-.156.976Zm11.074-1.855v12.597h-1.816v-14.628h1.66l.156 2.031Zm7.119 3.164v.205a8 8 0 0 1-.273 2.139 5.245 5.245 0 0 1-.801 1.699 3.639 3.639 0 0 1-1.279 1.123c-.508.267-1.091.4-1.748.4-.671 0-1.263-.11-1.777-.332a3.49 3.49 0 0 1-1.309-.967 4.923 4.923 0 0 1-.859-1.523 8.772 8.772 0 0 1-.43-2.002v-1.094a9.165 9.165 0 0 1 .439-2.099 5.217 5.217 0 0 1 .85-1.582 3.486 3.486 0 0 1 1.299-1.006c.508-.235 1.093-.352 1.758-.352.664 0 1.253.13 1.767.391.514.254.947.618 1.299 1.094.352.475.615 1.045.791 1.709.182.657.273 1.39.273 2.197Zm-1.816.205v-.205c0-.527-.055-1.022-.166-1.484a3.75 3.75 0 0 0-.518-1.231 2.459 2.459 0 0 0-.878-.84c-.359-.208-.785-.312-1.28-.312-.456 0-.853.078-1.191.234a2.58 2.58 0 0 0-.85.635c-.234.26-.426.56-.576.898a5.136 5.136 0 0 0-.322 1.035v2.53c.13.455.312.885.547 1.289.234.397.547.719.937.967.391.24.882.361 1.475.361.488 0 .908-.101 1.26-.303.358-.208.651-.491.878-.849.235-.358.407-.769.518-1.231.111-.469.166-.967.166-1.494Zm3.643 0v-.225c0-.761.11-1.468.332-2.119.221-.657.54-1.227.957-1.709a4.27 4.27 0 0 1 1.513-1.133c.593-.273 1.257-.41 1.993-.41.742 0 1.409.137 2.001.41a4.257 4.257 0 0 1 1.524 1.133 4.97 4.97 0 0 1 .967 1.709c.221.651.332 1.358.332 2.119v.225a6.55 6.55 0 0 1-.332 2.119 5.083 5.083 0 0 1-.967 1.709 4.433 4.433 0 0 1-1.514 1.133c-.586.267-1.25.4-1.992.4s-1.409-.133-2.002-.4a4.536 4.536 0 0 1-1.523-1.133 5.147 5.147 0 0 1-.957-1.709 6.524 6.524 0 0 1-.332-2.119Zm1.806-.225v.225c0 .527.062 1.025.186 1.494.123.462.309.873.556 1.231.254.358.57.641.948.849.377.202.817.303 1.318.303.495 0 .928-.101 1.299-.303.377-.208.69-.491.937-.849.248-.358.433-.769.557-1.231a5.57 5.57 0 0 0 .195-1.494v-.225c0-.52-.065-1.012-.195-1.474a3.797 3.797 0 0 0-.566-1.24 2.69 2.69 0 0 0-.938-.86c-.371-.208-.807-.312-1.308-.312-.495 0-.931.104-1.309.312a2.807 2.807 0 0 0-.938.86 3.909 3.909 0 0 0-.556 1.24 5.67 5.67 0 0 0-.186 1.474Zm11.885-3.515v8.906h-1.807v-10.566h1.758l.049 1.66Zm3.301-1.719-.01 1.68a2.62 2.62 0 0 0-.43-.059 4.583 4.583 0 0 0-.449-.019c-.417 0-.784.065-1.103.195-.319.13-.59.312-.811.547a2.624 2.624 0 0 0-.527.84c-.124.319-.205.67-.244 1.054l-.508.293c0-.638.062-1.237.185-1.797.131-.56.329-1.054.596-1.484a2.915 2.915 0 0 1 1.016-1.016c.416-.247.911-.371 1.484-.371.13 0 .28.017.449.049.169.026.287.055.352.088Zm6.582.059v1.386h-5.713v-1.386h5.713Zm-3.779-2.569h1.806v10.518c0 .358.055.628.166.81a.795.795 0 0 0 .43.362c.176.058.364.088.566.088.15 0 .306-.013.469-.039.169-.033.296-.059.381-.079l.01 1.475a4.163 4.163 0 0 1-.567.127 4.273 4.273 0 0 1-.83.068 2.83 2.83 0 0 1-1.221-.263c-.371-.176-.667-.469-.888-.879-.215-.417-.322-.977-.322-1.68v-10.508Z" fill="#4A4552"/>
  <rect x="140.75" y="237.75" width="137.5" height="55.5" rx="27.75" stroke="#4A4552" stroke-width="1.5"/>
  <rect y="237" width="128" height="57" rx="28.5" fill="#00C8E6"/>
  <path stroke="#fff" stroke-width="2.5" d="M27.5 265.159h20m-9.659-9.659v20"/>
  <path d="M72.088 258.281V272.5h-1.895l-7.158-10.967V272.5H61.15v-14.219h1.885l7.188 10.996v-10.996h1.865Zm7.451 14.414c-.736 0-1.403-.123-2.002-.371a4.55 4.55 0 0 1-1.533-1.064 4.737 4.737 0 0 1-.977-1.621 5.95 5.95 0 0 1-.341-2.051v-.41c0-.86.126-1.625.38-2.295.254-.677.6-1.25 1.036-1.719a4.418 4.418 0 0 1 1.484-1.064 4.263 4.263 0 0 1 1.719-.362c.755 0 1.406.13 1.953.391.553.26 1.006.625 1.357 1.094.352.462.612 1.009.782 1.64a7.83 7.83 0 0 1 .253 2.051v.811h-7.89v-1.475h6.084v-.137a4.512 4.512 0 0 0-.293-1.367 2.46 2.46 0 0 0-.782-1.094c-.358-.286-.846-.429-1.464-.429-.41 0-.788.088-1.133.263-.345.17-.641.424-.889.762-.247.339-.44.752-.576 1.24-.137.489-.205 1.052-.205 1.69v.41c0 .501.068.973.205 1.416.143.436.348.82.615 1.152.274.332.602.593.987.782.39.188.833.283 1.328.283.638 0 1.178-.131 1.62-.391a4.01 4.01 0 0 0 1.163-1.045l1.094.869a5.074 5.074 0 0 1-.87.987 4.15 4.15 0 0 1-1.298.761c-.508.196-1.11.293-1.807.293Zm8.897-2.07 2.714-8.691h1.192l-.235 1.728-2.763 8.838h-1.162l.254-1.875Zm-1.827-8.691 2.315 8.789.166 1.777h-1.22l-3.067-10.566h1.806Zm8.33 8.72 2.208-8.72h1.796L95.877 272.5h-1.211l.273-1.846Zm-2.333-8.72 2.656 8.545.302 2.021h-1.152l-2.842-8.857-.234-1.709h1.27Z" fill="#fff"/>
  <path d="M104.348 23c3.119 0 6.187.788 8.912 2.287a18.236 18.236 0 0 1 6.663 6.282l6.562 10.463a6.14 6.14 0 0 0 2.286 2.706 6.252 6.252 0 0 0 3.416 1.013H235.5c4.635 0 9.081 1.817 12.362 5.053A17.199 17.199 0 0 1 253 63.011V178.74a17.2 17.2 0 0 1-5.138 12.207A17.606 17.606 0 0 1 235.5 196H44.463a17.606 17.606 0 0 1-12.337-5.066A17.194 17.194 0 0 1 27 178.74V38.134c0-4.014 1.613-7.863 4.485-10.701A15.404 15.404 0 0 1 42.312 23h62.036Z" stroke="#6B6B6B" stroke-width="2" stroke-miterlimit="10" stroke-dasharray="2 2"/>
  <path stroke="#4A4552" stroke-width="4" stroke-linecap="round" d="M273 76h29m-65-45V2m29.606 43.288 22.216-18.64"/>
  <g filter="url(#a)">
    <path d="m132.247 299.322-38.649-14.08c-.644-.271-1.174.26-.904.904l14.069 38.66c.289.689 1.204.86 1.473.278l6.027-9.205c.207-.451.844-.473 1.263-.041l9.019 9.353c.347.347.855.409 1.138.126l7.065-7.065c.283-.283.226-.796-.126-1.138l-9.354-9.032c-.422-.422-.41-1.057.04-1.263l9.205-6.027c.588-.26.421-1.181-.266-1.47Z" fill="#fff"/>
    <path d="m132.247 299.322-38.649-14.08c-.644-.271-1.174.26-.904.904l14.069 38.66c.289.689 1.204.86 1.473.278l6.027-9.205c.207-.451.844-.473 1.263-.041l9.019 9.353c.347.347.855.409 1.138.126l7.065-7.065c.283-.283.226-.796-.126-1.138l-9.354-9.032c-.422-.422-.41-1.057.04-1.263l9.205-6.027c.588-.26.421-1.181-.266-1.47Z" stroke="#4A4552" stroke-miterlimit="10"/>
  </g>
  <defs>
    <filter id="a" x="88.122" y="284.67" width="49.308" height="49.328" filterUnits="userSpaceOnUse" color-interpolation-filters="sRGB">
      <feFlood flood-opacity="0" result="BackgroundImageFix"/>
      <feColorMatrix in="SourceAlpha" values="0 0 0 0 0 0 0 0 0 0 0 0 0 0 0 0 0 0 127 0" result="hardAlpha"/>
      <feOffset dy="4"/>
      <feGaussianBlur stdDeviation="2"/>
      <feComposite in2="hardAlpha" operator="out"/>
      <feColorMatrix values="0 0 0 0 0 0 0 0 0 0 0 0 0 0 0 0 0 0 0.25 0"/>
      <feBlend in2="BackgroundImageFix" result="effect1_dropShadow_1379_9537"/>
      <feBlend in="SourceGraphic" in2="effect1_dropShadow_1379_9537" result="shape"/>
    </filter>
  </defs>
</svg>